<mxfile host="app.diagrams.net" agent="Mozilla/5.0 (Macintosh; Intel Mac OS X 10.15; rv:140.0) Gecko/20100101 Firefox/140.0" version="28.0.5" pages="2">
  <diagram name="[0] high level setup" id="tJziRCqHFudNewLzHaw2">
    <mxGraphModel dx="613" dy="751" grid="0" gridSize="5" guides="1" tooltips="1" connect="1" arrows="1" fold="1" page="1" pageScale="1" pageWidth="827" pageHeight="1169" background="#4d5766" math="0" shadow="0">
      <root>
        <mxCell id="qbExKh2GQzYHgT6TWYTY-0" />
        <mxCell id="qbExKh2GQzYHgT6TWYTY-1" parent="qbExKh2GQzYHgT6TWYTY-0" />
        <mxCell id="P-K8g6husN1xDYQWRV40-2" value="" style="verticalLabelPosition=bottom;verticalAlign=top;html=1;shape=mxgraph.basic.rect;fillColor2=none;strokeWidth=1;size=3.87;indent=0;topLeftStyle=rounded;topRightStyle=rounded;strokeColor=#98A2AE;rotation=-180;fillColor=#edf3f5;connectable=0;" parent="qbExKh2GQzYHgT6TWYTY-1" vertex="1">
          <mxGeometry x="463" y="603" width="488" height="374" as="geometry" />
        </mxCell>
        <mxCell id="P-K8g6husN1xDYQWRV40-3" value="" style="rounded=1;whiteSpace=wrap;html=1;fillColor=none;dashed=1;strokeColor=#98A2AE;arcSize=3;connectable=0;movable=1;resizable=1;rotatable=1;deletable=1;editable=1;locked=0;" parent="qbExKh2GQzYHgT6TWYTY-1" vertex="1">
          <mxGeometry x="501" y="645" width="423" height="313" as="geometry" />
        </mxCell>
        <mxCell id="P-K8g6husN1xDYQWRV40-4" value="" style="rounded=1;whiteSpace=wrap;html=1;fillColor=none;dashed=1;strokeColor=#98A2AE;arcSize=3;connectable=0;movable=1;resizable=1;rotatable=1;deletable=1;editable=1;locked=0;" parent="qbExKh2GQzYHgT6TWYTY-1" vertex="1">
          <mxGeometry x="535" y="685" width="362" height="252" as="geometry" />
        </mxCell>
        <mxCell id="P-K8g6husN1xDYQWRV40-5" value="&lt;b&gt;Try EDA &lt;/b&gt;environment" style="verticalLabelPosition=middle;verticalAlign=middle;html=1;shape=mxgraph.basic.rect;fillColor2=none;strokeWidth=1;size=4.22;indent=29.33;topLeftStyle=rounded;topRightStyle=rounded;strokeColor=#98a2ae;fillColor=#BEC8D2;labelPosition=center;align=center;fontFamily=Google Sans;fontSource=https%3A%2F%2Ffonts.googleapis.com%2Fcss%3Ffamily%3DGoogle%2BSans;fontColor=light-dark(#1B1D23,#000000);fontSize=16;" parent="qbExKh2GQzYHgT6TWYTY-1" vertex="1">
          <mxGeometry x="463" y="577" width="488" height="26" as="geometry" />
        </mxCell>
        <mxCell id="P-K8g6husN1xDYQWRV40-6" value="" style="group;aspect=fixed;strokeColor=none;" parent="qbExKh2GQzYHgT6TWYTY-1" vertex="1" connectable="0">
          <mxGeometry x="518" y="667" width="40" height="40" as="geometry" />
        </mxCell>
        <mxCell id="P-K8g6husN1xDYQWRV40-7" value="" style="shape=image;verticalLabelPosition=bottom;labelBackgroundColor=default;verticalAlign=top;aspect=fixed;imageAspect=0;image=data:image/svg+xml,PHN2ZyB4bWxuczp4bGluaz0iaHR0cDovL3d3dy53My5vcmcvMTk5OS94bGluayIgeG1sbnM9Imh0dHA6Ly93d3cudzMub3JnLzIwMDAvc3ZnIiBoZWlnaHQ9Ijc3NS40NSIgd2lkdGg9Ijc4Mi4wMyIgdmlld0JveD0iLTE3My4yNjY3IC0zMDkuNjY0IDc4Mi4wMjk4IDc3NS40NTAzIj4mI3hhOyAgPGRlZnM+JiN4YTsgICAgPGxpbmVhckdyYWRpZW50IGdyYWRpZW50VHJhbnNmb3JtPSJtYXRyaXgoMSwgMCwgMCwgMSwgLTE3My4yNjc2NywgLTMwOS42NjQzOTgpIiBncmFkaWVudFVuaXRzPSJ1c2VyU3BhY2VPblVzZSIgeTI9IjY0NS41NiIgeDI9IjQ5NC42OCIgeTE9IjY0NS41NiIgeDE9IjQ1My44OCIgaWQ9ImxpbmVhci1ncmFkaWVudCI+JiN4YTsgICAgICA8c3RvcCBzdG9wLWNvbG9yPSIjMjUyMzY0IiBvZmZzZXQ9IjAiLz4mI3hhOyAgICAgIDxzdG9wIHN0b3AtY29sb3I9IiMyYTIyNjQiIG9mZnNldD0iMC4xMSIvPiYjeGE7ICAgICAgPHN0b3Agc3RvcC1jb2xvcj0iIzM5MWY2NCIgb2Zmc2V0PSIwLjI1Ii8+JiN4YTsgICAgICA8c3RvcCBzdG9wLWNvbG9yPSIjNTExYjY1IiBvZmZzZXQ9IjAuNCIvPiYjeGE7ICAgICAgPHN0b3Agc3RvcC1jb2xvcj0iIzc0MTY2NSIgb2Zmc2V0PSIwLjU1Ii8+JiN4YTsgICAgICA8c3RvcCBzdG9wLWNvbG9yPSIjYTAwZjY2IiBvZmZzZXQ9IjAuNzIiLz4mI3hhOyAgICAgIDxzdG9wIHN0b3AtY29sb3I9IiNkNTA2NjgiIG9mZnNldD0iMC44OCIvPiYjeGE7ICAgICAgPHN0b3Agc3RvcC1jb2xvcj0iI2ZmMDA2OSIgb2Zmc2V0PSIxIi8+JiN4YTsgICAgPC9saW5lYXJHcmFkaWVudD4mI3hhOyAgICA8bGluZWFyR3JhZGllbnQgZ3JhZGllbnRUcmFuc2Zvcm09Im1hdHJpeCgxLCAwLCAwLCAxLCAtMTczLjI2NzY3LCAtMzA5LjY2NDM5OCkiIGdyYWRpZW50VW5pdHM9InVzZXJTcGFjZU9uVXNlIiB5Mj0iNzA5Ljk1IiB4Mj0iNDU3LjU4IiB5MT0iNzA5Ljk1IiB4MT0iMzcwLjE4IiBpZD0ibGluZWFyLWdyYWRpZW50LTIiPiYjeGE7ICAgICAgPHN0b3Agc3RvcC1jb2xvcj0iIzc0MjI2ZSIgb2Zmc2V0PSIwIi8+JiN4YTsgICAgICA8c3RvcCBzdG9wLWNvbG9yPSIjNzMyMjZkIiBvZmZzZXQ9IjAiLz4mI3hhOyAgICAgIDxzdG9wIHN0b3AtY29sb3I9IiM1MTIyNjkiIG9mZnNldD0iMC4yOCIvPiYjeGE7ICAgICAgPHN0b3Agc3RvcC1jb2xvcj0iIzM5MjI2NiIgb2Zmc2V0PSIwLjU1Ii8+JiN4YTsgICAgICA8c3RvcCBzdG9wLWNvbG9yPSIjMmEyMjY0IiBvZmZzZXQ9IjAuOCIvPiYjeGE7ICAgICAgPHN0b3Agc3RvcC1jb2xvcj0iIzI1MjM2NCIgb2Zmc2V0PSIxIi8+JiN4YTsgICAgPC9saW5lYXJHcmFkaWVudD4mI3hhOyAgICA8bGluZWFyR3JhZGllbnQgZ3JhZGllbnRUcmFuc2Zvcm09Im1hdHJpeCgxLCAwLCAwLCAxLCAtMTczLjI2NzY3LCAtMzA5LjY2NDM5OCkiIGdyYWRpZW50VW5pdHM9InVzZXJTcGFjZU9uVXNlIiB5Mj0iNDI5LjciIHgyPSI4OC41MyIgeTE9IjI3Ny4zMSIgeDE9Ijg4LjUzIiBpZD0ibGluZWFyLWdyYWRpZW50LTMiPiYjeGE7ICAgICAgPHN0b3Agc3RvcC1jb2xvcj0iI2ZmYzkwZiIgb2Zmc2V0PSIwIi8+JiN4YTsgICAgICA8c3RvcCBzdG9wLWNvbG9yPSIjYjcwMDVmIiBvZmZzZXQ9IjEiLz4mI3hhOyAgICA8L2xpbmVhckdyYWRpZW50PiYjeGE7ICAgIDxsaW5lYXJHcmFkaWVudCBncmFkaWVudFRyYW5zZm9ybT0ibWF0cml4KDEsIDAsIDAsIDEsIC0xNzMuMjY3NjcsIC0zMDkuNjY0Mzk4KSIgZ3JhZGllbnRVbml0cz0idXNlclNwYWNlT25Vc2UiIHkyPSIxMDQuNTUiIHgyPSIxODQiIHkxPSIxMDQuNTUiIHgxPSIxMjkuOTkiIGlkPSJsaW5lYXItZ3JhZGllbnQtNCI+JiN4YTsgICAgICA8c3RvcCBzdG9wLWNvbG9yPSIjZjlmZjAwIiBvZmZzZXQ9IjAiLz4mI3hhOyAgICAgIDxzdG9wIHN0b3AtY29sb3I9IiNmZjU3MDAiIG9mZnNldD0iMSIvPiYjeGE7ICAgIDwvbGluZWFyR3JhZGllbnQ+JiN4YTsgICAgPGxpbmVhckdyYWRpZW50IGdyYWRpZW50VHJhbnNmb3JtPSJtYXRyaXgoMSwgMCwgMCwgMSwgLTE3My4yNjc2NywgLTMwOS42NjQzOTgpIiBncmFkaWVudFVuaXRzPSJ1c2VyU3BhY2VPblVzZSIgeTI9IjQyOS43IiB4Mj0iMTI5LjYzIiB5MT0iMTg0Ljc5IiB4MT0iMTI5LjYzIiBpZD0ibGluZWFyLWdyYWRpZW50LTUiPiYjeGE7ICAgICAgPHN0b3Agc3RvcC1jb2xvcj0iI2M3MDAzMyIgb2Zmc2V0PSIwIi8+JiN4YTsgICAgICA8c3RvcCBzdG9wLWNvbG9yPSIjODIwMDQ4IiBvZmZzZXQ9IjAuMzQiLz4mI3hhOyAgICAgIDxzdG9wIHN0b3AtY29sb3I9IiMxNDAwNGIiIG9mZnNldD0iMSIvPiYjeGE7ICAgIDwvbGluZWFyR3JhZGllbnQ+JiN4YTsgICAgPGxpbmVhckdyYWRpZW50IHhsaW5rOmhyZWY9IiNsaW5lYXItZ3JhZGllbnQtNCIgZ3JhZGllbnRUcmFuc2Zvcm09Im1hdHJpeCgxLCAwLCAwLCAxLCAtMzQ2LjUzNTMzOSwgLTYxOS4zMjg3OTYpIiB5Mj0iNTEuMDgiIHgyPSI0NDYuMTYiIHkxPSI1MS4wOCIgeDE9IjI1Mi43MyIgaWQ9ImxpbmVhci1ncmFkaWVudC02Ii8+JiN4YTsgICAgPGxpbmVhckdyYWRpZW50IGdyYWRpZW50VHJhbnNmb3JtPSJtYXRyaXgoMSwgMCwgMCwgMSwgLTE3My4yNjc2NywgLTMwOS42NjQzOTgpIiBncmFkaWVudFVuaXRzPSJ1c2VyU3BhY2VPblVzZSIgeTI9IjEzNy4wMiIgeDI9IjMwMi4xOCIgeTE9IjEzNy4wMiIgeDE9IjIxOS4xNiIgaWQ9ImxpbmVhci1ncmFkaWVudC03Ij4mI3hhOyAgICAgIDxzdG9wIHN0b3AtY29sb3I9IiNiNzAwNWYiIG9mZnNldD0iMCIvPiYjeGE7ICAgICAgPHN0b3Agc3RvcC1jb2xvcj0iI2ZmYzkwZiIgb2Zmc2V0PSIxIi8+JiN4YTsgICAgPC9saW5lYXJHcmFkaWVudD4mI3hhOyAgICA8bGluZWFyR3JhZGllbnQgZ3JhZGllbnRUcmFuc2Zvcm09Im1hdHJpeCgxLCAwLCAwLCAxLCAtMTczLjI2NzY3LCAtMzA5LjY2NDM5OCkiIGdyYWRpZW50VW5pdHM9InVzZXJTcGFjZU9uVXNlIiB5Mj0iNDI5LjciIHgyPSIxNDIuODYiIHkxPSIyODUuMjgiIHgxPSIxNDIuODYiIGlkPSJsaW5lYXItZ3JhZGllbnQtOCI+JiN4YTsgICAgICA8c3RvcCBzdG9wLWNvbG9yPSIjNzQyMjZlIiBvZmZzZXQ9IjAiLz4mI3hhOyAgICAgIDxzdG9wIHN0b3AtY29sb3I9IiMyNTIzNjQiIG9mZnNldD0iMSIvPiYjeGE7ICAgIDwvbGluZWFyR3JhZGllbnQ+JiN4YTsgICAgPGxpbmVhckdyYWRpZW50IGdyYWRpZW50VHJhbnNmb3JtPSJtYXRyaXgoMSwgMCwgMCwgMSwgLTE3My4yNjc2NywgLTMwOS42NjQzOTgpIiBncmFkaWVudFVuaXRzPSJ1c2VyU3BhY2VPblVzZSIgeTI9IjE3OS4xNCIgeDI9IjM5Mi44NCIgeTE9IjE3OS4xNCIgeDE9IjE3Mi44OSIgaWQ9ImxpbmVhci1ncmFkaWVudC05Ij4mI3hhOyAgICAgIDxzdG9wIHN0b3AtY29sb3I9IiMyNzAwNGIiIG9mZnNldD0iMCIvPiYjeGE7ICAgICAgPHN0b3Agc3RvcC1jb2xvcj0iI2ZmMDAyYSIgb2Zmc2V0PSIxIi8+JiN4YTsgICAgPC9saW5lYXJHcmFkaWVudD4mI3hhOyAgICA8bGluZWFyR3JhZGllbnQgeGxpbms6aHJlZj0iI2xpbmVhci1ncmFkaWVudC03IiBncmFkaWVudFRyYW5zZm9ybT0ibWF0cml4KDEsIDAsIDAsIDEsIC0zNDYuNTM1MzM5LCAtNjE5LjMyODc5NikiIHkyPSIzMzcuNTkiIHgyPSIxODYuNDMiIHkxPSIzMzcuNTkiIHgxPSIxNDguMDgiIGlkPSJsaW5lYXItZ3JhZGllbnQtMTAiLz4mI3hhOyAgICA8bGluZWFyR3JhZGllbnQgeGxpbms6aHJlZj0iI2xpbmVhci1ncmFkaWVudC03IiBncmFkaWVudFRyYW5zZm9ybT0ibWF0cml4KDEsIDAsIDAsIDEsIC0zNDYuNTM1MzM5LCAtNjE5LjMyODc5NikiIHkyPSIyMjguNzIiIHgyPSIzMjcuMDYiIHkxPSIyMjguNzIiIHgxPSIxNzkuMDciIGlkPSJsaW5lYXItZ3JhZGllbnQtMTEiLz4mI3hhOyAgICA8bGluZWFyR3JhZGllbnQgeGxpbms6aHJlZj0iI2xpbmVhci1ncmFkaWVudC05IiBncmFkaWVudFRyYW5zZm9ybT0ibWF0cml4KDEsIDAsIDAsIDEsIC0zNDYuNTM1MzM5LCAtNjE5LjMyODc5NikiIHkyPSIxNDYuOCIgeDI9IjM4MS40MSIgeTE9IjE0Ni44IiB4MT0iMzA5LjExIiBpZD0ibGluZWFyLWdyYWRpZW50LTEyIi8+JiN4YTsgICAgPGxpbmVhckdyYWRpZW50IHhsaW5rOmhyZWY9IiNsaW5lYXItZ3JhZGllbnQtOSIgZ3JhZGllbnRUcmFuc2Zvcm09Im1hdHJpeCgxLCAwLCAwLCAxLCAtMzQ2LjUzNTMzOSwgLTYxOS4zMjg3OTYpIiB5Mj0iMTg2LjQ5IiB4Mj0iMzUzLjkyIiB5MT0iMTg2LjQ5IiB4MT0iMjg0LjMiIGlkPSJsaW5lYXItZ3JhZGllbnQtMTMiLz4mI3hhOyAgICA8bGluZWFyR3JhZGllbnQgeGxpbms6aHJlZj0iI2xpbmVhci1ncmFkaWVudC03IiBncmFkaWVudFRyYW5zZm9ybT0ibWF0cml4KDEsIDAsIDAsIDEsIC0zNDYuNTM1MzM5LCAtNjE5LjMyODc5NikiIHkyPSIyODYuMTciIHgyPSIyNzEuNiIgeTE9IjI4Ni4xNyIgeDE9IjE4Mi4yIiBpZD0ibGluZWFyLWdyYWRpZW50LTE0Ii8+JiN4YTsgICAgPGxpbmVhckdyYWRpZW50IGdyYWRpZW50VHJhbnNmb3JtPSJtYXRyaXgoMSwgMCwgMCwgMSwgLTE3My4yNjc2NywgLTMwOS42NjQzOTgpIiBncmFkaWVudFVuaXRzPSJ1c2VyU3BhY2VPblVzZSIgeTI9IjE4Ni41MiIgeDI9IjQyOC4zNCIgeTE9IjE4Ni41MiIgeDE9IjI4OC45NCIgaWQ9ImxpbmVhci1ncmFkaWVudC0xNSI+JiN4YTsgICAgICA8c3RvcCBzdG9wLWNvbG9yPSIjNWMwMDRkIiBvZmZzZXQ9IjAiLz4mI3hhOyAgICAgIDxzdG9wIHN0b3AtY29sb3I9IiM0OTIxNjMiIG9mZnNldD0iMSIvPiYjeGE7ICAgIDwvbGluZWFyR3JhZGllbnQ+JiN4YTsgICAgPGxpbmVhckdyYWRpZW50IHhsaW5rOmhyZWY9IiNsaW5lYXItZ3JhZGllbnQtNCIgZ3JhZGllbnRUcmFuc2Zvcm09Im1hdHJpeCgxLCAwLCAwLCAxLCAtMzQ2LjUzNTMzOSwgLTYxOS4zMjg3OTYpIiB5Mj0iMTI0LjMxIiB4Mj0iNjY0LjY3IiB5MT0iMTI0LjMxIiB4MT0iNDY5LjA5IiBpZD0ibGluZWFyLWdyYWRpZW50LTE2Ii8+JiN4YTsgICAgPGxpbmVhckdyYWRpZW50IGdyYWRpZW50VHJhbnNmb3JtPSJtYXRyaXgoMSwgMCwgMCwgMSwgLTE3My4yNjc2NywgLTMwOS42NjQzOTgpIiBncmFkaWVudFVuaXRzPSJ1c2VyU3BhY2VPblVzZSIgeTI9IjEyNy43NSIgeDI9IjY2NC42NyIgeTE9IjEyNy43NSIgeDE9IjUyOS42NyIgaWQ9ImxpbmVhci1ncmFkaWVudC0xNyI+JiN4YTsgICAgICA8c3RvcCBzdG9wLWNvbG9yPSIjZmZjODAwIiBvZmZzZXQ9IjAiLz4mI3hhOyAgICAgIDxzdG9wIHN0b3AtY29sb3I9IiNmZjAwMmEiIG9mZnNldD0iMSIvPiYjeGE7ICAgIDwvbGluZWFyR3JhZGllbnQ+JiN4YTsgICAgPGxpbmVhckdyYWRpZW50IGdyYWRpZW50VHJhbnNmb3JtPSJtYXRyaXgoMSwgMCwgMCwgMSwgLTE3My4yNjc2NywgLTMwOS42NjQzOTgpIiBncmFkaWVudFVuaXRzPSJ1c2VyU3BhY2VPblVzZSIgeTI9IjMyMC4yNiIgeDI9IjI1MS4yMiIgeTE9IjMyMC4yNiIgeDE9IjE0OC4wOCIgaWQ9ImxpbmVhci1ncmFkaWVudC0xOCI+JiN4YTsgICAgICA8c3RvcCBzdG9wLWNvbG9yPSIjMTQwMDRiIiBvZmZzZXQ9IjAiLz4mI3hhOyAgICAgIDxzdG9wIHN0b3AtY29sb3I9IiM4MjAwNDgiIG9mZnNldD0iMC42NiIvPiYjeGE7ICAgICAgPHN0b3Agc3RvcC1jb2xvcj0iI2M3MDAzMyIgb2Zmc2V0PSIxIi8+JiN4YTsgICAgPC9saW5lYXJHcmFkaWVudD4mI3hhOyAgICA8bGluZWFyR3JhZGllbnQgZ3JhZGllbnRUcmFuc2Zvcm09Im1hdHJpeCgxLCAwLCAwLCAxLCAtMTczLjI2NzY3LCAtMzA5LjY2NDM5OCkiIGdyYWRpZW50VW5pdHM9InVzZXJTcGFjZU9uVXNlIiB5Mj0iMjM2LjA2IiB4Mj0iMzIyLjU2IiB5MT0iMjM2LjA2IiB4MT0iMjQ4LjkiIGlkPSJsaW5lYXItZ3JhZGllbnQtMTkiPiYjeGE7ICAgICAgPHN0b3Agc3RvcC1jb2xvcj0iIzc0MjI2ZSIgb2Zmc2V0PSIwIi8+JiN4YTsgICAgICA8c3RvcCBzdG9wLWNvbG9yPSIjNDkyMTYzIiBvZmZzZXQ9IjEiLz4mI3hhOyAgICA8L2xpbmVhckdyYWRpZW50PiYjeGE7ICAgIDxsaW5lYXJHcmFkaWVudCBncmFkaWVudFRyYW5zZm9ybT0ibWF0cml4KDEsIDAsIDAsIDEsIC0xNzMuMjY3NjcsIC0zMDkuNjY0Mzk4KSIgZ3JhZGllbnRVbml0cz0idXNlclNwYWNlT25Vc2UiIHkyPSIyNTEuNDciIHgyPSI0MzYuNjQiIHkxPSIyNTEuNDciIHgxPSIyMjcuMzUiIGlkPSJsaW5lYXItZ3JhZGllbnQtMjAiPiYjeGE7ICAgICAgPHN0b3Agc3RvcC1jb2xvcj0iI2ZmMDAyYSIgb2Zmc2V0PSIwIi8+JiN4YTsgICAgICA8c3RvcCBzdG9wLWNvbG9yPSIjZmZjODAwIiBvZmZzZXQ9IjEiLz4mI3hhOyAgICA8L2xpbmVhckdyYWRpZW50PiYjeGE7ICAgIDxsaW5lYXJHcmFkaWVudCB4bGluazpocmVmPSIjbGluZWFyLWdyYWRpZW50LTkiIGdyYWRpZW50VHJhbnNmb3JtPSJtYXRyaXgoMSwgMCwgMCwgMSwgLTM0Ni41MzUzMzksIC02MTkuMzI4Nzk2KSIgeTI9IjE5OC4yNiIgeDI9IjQ3Ny44MiIgeTE9IjE5OC4yNiIgeDE9IjM2OC4zNSIgaWQ9ImxpbmVhci1ncmFkaWVudC0yMSIvPiYjeGE7ICAgIDxsaW5lYXJHcmFkaWVudCB4bGluazpocmVmPSIjbGluZWFyLWdyYWRpZW50LTE1IiBncmFkaWVudFRyYW5zZm9ybT0ibWF0cml4KDEsIDAsIDAsIDEsIC0zNDYuNTM1MzM5LCAtNjE5LjMyODc5NikiIHkyPSIyNjIuMTkiIHgyPSI0ODMuNDIiIHkxPSIyNjIuMTkiIHgxPSIyNDMuNzciIGlkPSJsaW5lYXItZ3JhZGllbnQtMjIiLz4mI3hhOyAgICA8bGluZWFyR3JhZGllbnQgeGxpbms6aHJlZj0iI2xpbmVhci1ncmFkaWVudC04IiBncmFkaWVudFRyYW5zZm9ybT0ibWF0cml4KDEsIDAsIDAsIDEsIC0zNDYuNTM1MzM5LCAtNjE5LjMyODc5NikiIHkyPSIyOTIuNDIiIHgyPSI0NzEuODUiIHkxPSIyOTIuNDIiIHgxPSIyNDIuNzUiIGlkPSJsaW5lYXItZ3JhZGllbnQtMjMiLz4mI3hhOyAgICA8bGluZWFyR3JhZGllbnQgZ3JhZGllbnRUcmFuc2Zvcm09Im1hdHJpeCgxLCAwLCAwLCAxLCAtMTczLjI2NzY3LCAtMzA5LjY2NDM5OCkiIGdyYWRpZW50VW5pdHM9InVzZXJTcGFjZU9uVXNlIiB5Mj0iMzQ2LjY0IiB4Mj0iNDY3LjA0IiB5MT0iMzQ2LjY0IiB4MT0iMjg1LjczIiBpZD0ibGluZWFyLWdyYWRpZW50LTI0Ij4mI3hhOyAgICAgIDxzdG9wIHN0b3AtY29sb3I9IiNkZTAwNmIiIG9mZnNldD0iMCIvPiYjeGE7ICAgICAgPHN0b3Agc3RvcC1jb2xvcj0iI2Q1MDE2YSIgb2Zmc2V0PSIwLjAzIi8+JiN4YTsgICAgICA8c3RvcCBzdG9wLWNvbG9yPSIjYTAwYjY4IiBvZmZzZXQ9IjAuMjEiLz4mI3hhOyAgICAgIDxzdG9wIHN0b3AtY29sb3I9IiM3NDE0NjYiIG9mZnNldD0iMC4zOSIvPiYjeGE7ICAgICAgPHN0b3Agc3RvcC1jb2xvcj0iIzUxMWE2NSIgb2Zmc2V0PSIwLjU3Ii8+JiN4YTsgICAgICA8c3RvcCBzdG9wLWNvbG9yPSIjMzkxZjY0IiBvZmZzZXQ9IjAuNzMiLz4mI3hhOyAgICAgIDxzdG9wIHN0b3AtY29sb3I9IiMyYTIyNjQiIG9mZnNldD0iMC44OCIvPiYjeGE7ICAgICAgPHN0b3Agc3RvcC1jb2xvcj0iIzI1MjM2NCIgb2Zmc2V0PSIxIi8+JiN4YTsgICAgPC9saW5lYXJHcmFkaWVudD4mI3hhOyAgICA8bGluZWFyR3JhZGllbnQgeGxpbms6aHJlZj0iI2xpbmVhci1ncmFkaWVudC0yIiBncmFkaWVudFRyYW5zZm9ybT0ibWF0cml4KDEsIDAsIDAsIDEsIC0zNDYuNTM1MzM5LCAtNjE5LjMyODc5NikiIHkyPSIzMTcuNTQiIHgyPSI0ODMuNDIiIHkxPSIzMTcuNTQiIHgxPSIzMjIuNTYiIGlkPSJsaW5lYXItZ3JhZGllbnQtMjUiLz4mI3hhOyAgICA8bGluZWFyR3JhZGllbnQgZ3JhZGllbnRUcmFuc2Zvcm09Im1hdHJpeCgxLCAwLCAwLCAxLCAtMTczLjI2NzY3LCAtMzA5LjY2NDM5OCkiIGdyYWRpZW50VW5pdHM9InVzZXJTcGFjZU9uVXNlIiB5Mj0iMjk5LjcxIiB4Mj0iNDkxLjcyIiB5MT0iMjk5LjcxIiB4MT0iNDIxLjcxIiBpZD0ibGluZWFyLWdyYWRpZW50LTI2Ij4mI3hhOyAgICAgIDxzdG9wIHN0b3AtY29sb3I9IiMyNTIzNjQiIG9mZnNldD0iMCIvPiYjeGE7ICAgICAgPHN0b3Agc3RvcC1jb2xvcj0iIzc0MjI2ZSIgb2Zmc2V0PSIxIi8+JiN4YTsgICAgPC9saW5lYXJHcmFkaWVudD4mI3hhOyAgICA8bGluZWFyR3JhZGllbnQgZ3JhZGllbnRUcmFuc2Zvcm09Im1hdHJpeCgxLCAwLCAwLCAxLCAtMTczLjI2NzY3LCAtMzA5LjY2NDM5OCkiIGdyYWRpZW50VW5pdHM9InVzZXJTcGFjZU9uVXNlIiB5Mj0iMzk3LjYyIiB4Mj0iNDcwLjEzIiB5MT0iMzk3LjYyIiB4MT0iMzQwLjU2IiBpZD0ibGluZWFyLWdyYWRpZW50LTI3Ij4mI3hhOyAgICAgIDxzdG9wIHN0b3AtY29sb3I9IiMyNTIzNjQiIG9mZnNldD0iMCIvPiYjeGE7ICAgICAgPHN0b3Agc3RvcC1jb2xvcj0iIzJhMjI2NCIgb2Zmc2V0PSIwLjIiLz4mI3hhOyAgICAgIDxzdG9wIHN0b3AtY29sb3I9IiMzOTIyNjYiIG9mZnNldD0iMC40NSIvPiYjeGE7ICAgICAgPHN0b3Agc3RvcC1jb2xvcj0iIzUxMjI2OSIgb2Zmc2V0PSIwLjcyIi8+JiN4YTsgICAgICA8c3RvcCBzdG9wLWNvbG9yPSIjNzMyMjZkIiBvZmZzZXQ9IjEiLz4mI3hhOyAgICAgIDxzdG9wIHN0b3AtY29sb3I9IiM3NDIyNmUiIG9mZnNldD0iMSIvPiYjeGE7ICAgIDwvbGluZWFyR3JhZGllbnQ+JiN4YTsgICAgPGxpbmVhckdyYWRpZW50IHhsaW5rOmhyZWY9IiNsaW5lYXItZ3JhZGllbnQtMTciIGdyYWRpZW50VHJhbnNmb3JtPSJtYXRyaXgoMSwgMCwgMCwgMSwgLTM0Ni41MzUzMzksIC02MTkuMzI4Nzk2KSIgeTI9IjE4OS44NyIgeDI9IjcxMi4yNCIgeTE9IjE4OS44NyIgeDE9IjUyNC43OSIgaWQ9ImxpbmVhci1ncmFkaWVudC0yOCIvPiYjeGE7ICAgIDxsaW5lYXJHcmFkaWVudCB4bGluazpocmVmPSIjbGluZWFyLWdyYWRpZW50LTQiIGdyYWRpZW50VHJhbnNmb3JtPSJtYXRyaXgoMSwgMCwgMCwgMSwgLTM0Ni41MzUzMzksIC02MTkuMzI4Nzk2KSIgeTI9IjIyNS44NCIgeDI9Ijc1Mi41IiB5MT0iMjI1Ljg0IiB4MT0iNjExLjU2IiBpZD0ibGluZWFyLWdyYWRpZW50LTI5Ii8+JiN4YTsgICAgPGxpbmVhckdyYWRpZW50IHhsaW5rOmhyZWY9IiNsaW5lYXItZ3JhZGllbnQtMTciIGdyYWRpZW50VHJhbnNmb3JtPSJtYXRyaXgoMSwgMCwgMCwgMSwgLTM0Ni41MzUzMzksIC02MTkuMzI4Nzk2KSIgeTI9IjM0My40IiB4Mj0iNzgyLjAzIiB5MT0iMzQzLjQiIHgxPSI1NjAuNzEiIGlkPSJsaW5lYXItZ3JhZGllbnQtMzAiLz4mI3hhOyAgICA8bGluZWFyR3JhZGllbnQgeGxpbms6aHJlZj0iI2xpbmVhci1ncmFkaWVudC0yMCIgZ3JhZGllbnRUcmFuc2Zvcm09Im1hdHJpeCgxLCAwLCAwLCAxLCAtMzQ2LjUzNTMzOSwgLTYxOS4zMjg3OTYpIiB5Mj0iMzA1LjAyIiB4Mj0iNzc3LjQ5IiB5MT0iMzA1LjAyIiB4MT0iNjk0LjYzIiBpZD0ibGluZWFyLWdyYWRpZW50LTMxIi8+JiN4YTsgICAgPGxpbmVhckdyYWRpZW50IHhsaW5rOmhyZWY9IiNsaW5lYXItZ3JhZGllbnQtMjciIGdyYWRpZW50VHJhbnNmb3JtPSJtYXRyaXgoMSwgMCwgMCwgMSwgLTM0Ni41MzUzMzksIC02MTkuMzI4Nzk2KSIgeTI9IjI4Ny4wNSIgeDI9IjU3OS45NiIgeTE9IjI4Ny4wNSIgeDE9IjQ2NS43OCIgaWQ9ImxpbmVhci1ncmFkaWVudC0zMiIvPiYjeGE7ICAgIDxsaW5lYXJHcmFkaWVudCB4bGluazpocmVmPSIjbGluZWFyLWdyYWRpZW50LTI2IiBncmFkaWVudFRyYW5zZm9ybT0ibWF0cml4KDEsIDAsIDAsIDEsIC0zNDYuNTM1MzM5LCAtNjE5LjMyODc5NikiIHkyPSIzMjcuOTIiIHgyPSI3MDYuMzUiIHkxPSIzMjcuOTIiIHgxPSI1NjAuNzEiIGlkPSJsaW5lYXItZ3JhZGllbnQtMzMiLz4mI3hhOyAgICA8bGluZWFyR3JhZGllbnQgeGxpbms6aHJlZj0iI2xpbmVhci1ncmFkaWVudC0yNyIgZ3JhZGllbnRUcmFuc2Zvcm09Im1hdHJpeCgxLCAwLCAwLCAxLCAtMzQ2LjUzNTMzOSwgLTYxOS4zMjg3OTYpIiB5Mj0iMzU1LjM3IiB4Mj0iNDY3LjA0IiB5MT0iMzU1LjM3IiB4MT0iMzQ5LjgzIiBpZD0ibGluZWFyLWdyYWRpZW50LTM0Ii8+JiN4YTsgICAgPGxpbmVhckdyYWRpZW50IHhsaW5rOmhyZWY9IiNsaW5lYXItZ3JhZGllbnQtMjQiIGdyYWRpZW50VHJhbnNmb3JtPSJtYXRyaXgoMSwgMCwgMCwgMSwgLTM0Ni41MzUzMzksIC02MTkuMzI4Nzk2KSIgeTI9IjQxOC42MyIgeDI9IjYwNi4yNSIgeTE9IjQxOC42MyIgeDE9IjM4NC4xMSIgaWQ9ImxpbmVhci1ncmFkaWVudC0zNSIvPiYjeGE7ICAgIDxsaW5lYXJHcmFkaWVudCB4bGluazpocmVmPSIjbGluZWFyLWdyYWRpZW50LTMiIGdyYWRpZW50VHJhbnNmb3JtPSJtYXRyaXgoMSwgMCwgMCwgMSwgLTM0Ni41MzUzMzksIC02MTkuMzI4Nzk2KSIgeTI9IjM2MC4zOSIgeDI9IjU2Ny45IiB5MT0iMzYwLjM5IiB4MT0iMzg0LjExIiBpZD0ibGluZWFyLWdyYWRpZW50LTM2Ii8+JiN4YTsgICAgPGxpbmVhckdyYWRpZW50IGdyYWRpZW50VHJhbnNmb3JtPSJtYXRyaXgoMSwgMCwgMCwgMSwgLTE3My4yNjc2NywgLTMwOS42NjQzOTgpIiBncmFkaWVudFVuaXRzPSJ1c2VyU3BhY2VPblVzZSIgeTI9IjMzOC45NSIgeDI9IjUwNi43NSIgeTE9IjMzOC45NSIgeDE9IjQ3Ny4xNiIgaWQ9ImxpbmVhci1ncmFkaWVudC0zNyI+JiN4YTsgICAgICA8c3RvcCBzdG9wLWNvbG9yPSIjZmYwMDJhIiBvZmZzZXQ9IjAiLz4mI3hhOyAgICAgIDxzdG9wIHN0b3AtY29sb3I9IiM1NTIxNmUiIG9mZnNldD0iMC44MiIvPiYjeGE7ICAgIDwvbGluZWFyR3JhZGllbnQ+JiN4YTsgICAgPGxpbmVhckdyYWRpZW50IHhsaW5rOmhyZWY9IiNsaW5lYXItZ3JhZGllbnQtMyIgZ3JhZGllbnRUcmFuc2Zvcm09Im1hdHJpeCgxLCAwLCAwLCAxLCAtMzQ2LjUzNTMzOSwgLTYxOS4zMjg3OTYpIiB5Mj0iNDAwLjAzIiB4Mj0iNjExLjU0IiB5MT0iMjU3LjEzIiB4MT0iNDY4LjY1IiBpZD0ibGluZWFyLWdyYWRpZW50LTM4Ii8+JiN4YTsgICAgPGxpbmVhckdyYWRpZW50IHhsaW5rOmhyZWY9IiNsaW5lYXItZ3JhZGllbnQtMTciIGdyYWRpZW50VHJhbnNmb3JtPSJtYXRyaXgoMSwgMCwgMCwgMSwgLTM0Ni41MzUzMzksIC02MTkuMzI4Nzk2KSIgeTI9IjQ3Mi4yMiIgeDI9IjY2MC44NCIgeTE9IjQ3Mi4yMiIgeDE9IjU2OC43OCIgaWQ9ImxpbmVhci1ncmFkaWVudC0zOSIvPiYjeGE7ICAgIDxsaW5lYXJHcmFkaWVudCB4bGluazpocmVmPSIjbGluZWFyLWdyYWRpZW50IiBncmFkaWVudFRyYW5zZm9ybT0ibWF0cml4KDEsIDAsIDAsIDEsIC0zNDYuNTM1MzM5LCAtNjE5LjMyODc5NikiIHkyPSI0ODcuNzEiIHgyPSI2MDYuMjUiIHkxPSI0ODcuNzEiIHgxPSI1MzcuMjgiIGlkPSJsaW5lYXItZ3JhZGllbnQtNDAiLz4mI3hhOyAgICA8bGluZWFyR3JhZGllbnQgeGxpbms6aHJlZj0iI2xpbmVhci1ncmFkaWVudC0xNyIgZ3JhZGllbnRUcmFuc2Zvcm09Im1hdHJpeCgxLCAwLCAwLCAxLCAtMzQ2LjUzNTMzOSwgLTYxOS4zMjg3OTYpIiB5Mj0iNjg3LjcxIiB4Mj0iNTMyLjc5IiB5MT0iNTM1Ljk1IiB4MT0iNTMyLjc5IiBpZD0ibGluZWFyLWdyYWRpZW50LTQxIi8+JiN4YTsgICAgPGxpbmVhckdyYWRpZW50IGdyYWRpZW50VHJhbnNmb3JtPSJtYXRyaXgoMSwgMCwgMCwgMSwgLTE3My4yNjc2NywgLTMwOS42NjQzOTgpIiBncmFkaWVudFVuaXRzPSJ1c2VyU3BhY2VPblVzZSIgeTI9IjQ1Ni41NSIgeDI9Ijc2OC43IiB5MT0iNDU2LjU1IiB4MT0iNjk2LjA3IiBpZD0ibGluZWFyLWdyYWRpZW50LTQyIj4mI3hhOyAgICAgIDxzdG9wIHN0b3AtY29sb3I9IiNmZjAwNjkiIG9mZnNldD0iMCIvPiYjeGE7ICAgICAgPHN0b3Agc3RvcC1jb2xvcj0iI2Q1MDY2OCIgb2Zmc2V0PSIwLjEyIi8+JiN4YTsgICAgICA8c3RvcCBzdG9wLWNvbG9yPSIjYTAwZjY2IiBvZmZzZXQ9IjAuMjgiLz4mI3hhOyAgICAgIDxzdG9wIHN0b3AtY29sb3I9IiM3NDE2NjUiIG9mZnNldD0iMC40NSIvPiYjeGE7ICAgICAgPHN0b3Agc3RvcC1jb2xvcj0iIzUxMWI2NSIgb2Zmc2V0PSIwLjYiLz4mI3hhOyAgICAgIDxzdG9wIHN0b3AtY29sb3I9IiMzOTFmNjQiIG9mZnNldD0iMC43NSIvPiYjeGE7ICAgICAgPHN0b3Agc3RvcC1jb2xvcj0iIzJhMjI2NCIgb2Zmc2V0PSIwLjg5Ii8+JiN4YTsgICAgICA8c3RvcCBzdG9wLWNvbG9yPSIjMjUyMzY0IiBvZmZzZXQ9IjEiLz4mI3hhOyAgICA8L2xpbmVhckdyYWRpZW50PiYjeGE7ICAgIDxsaW5lYXJHcmFkaWVudCB4bGluazpocmVmPSIjbGluZWFyLWdyYWRpZW50LTE3IiBncmFkaWVudFRyYW5zZm9ybT0ibWF0cml4KDEsIDAsIDAsIDEsIC0zNDYuNTM1MzM5LCAtNjE5LjMyODc5NikiIHkyPSI1MTcuNDYiIHgyPSI1MTYuMDQiIHkxPSI1MTcuNDYiIHgxPSI0NzAuMTMiIGlkPSJsaW5lYXItZ3JhZGllbnQtNDMiLz4mI3hhOyAgICA8bGluZWFyR3JhZGllbnQgeGxpbms6aHJlZj0iI2xpbmVhci1ncmFkaWVudC0yIiBncmFkaWVudFRyYW5zZm9ybT0ibWF0cml4KDEsIDAsIDAsIDEsIC0zNDYuNTM1MzM5LCAtNjE5LjMyODc5NikiIHkyPSI1NTYuMDYiIHgyPSI1ODAuNyIgeTE9IjU1Ni4wNiIgeDE9IjUzMy4yOSIgaWQ9ImxpbmVhci1ncmFkaWVudC00NCIvPiYjeGE7ICAgIDxsaW5lYXJHcmFkaWVudCB4bGluazpocmVmPSIjbGluZWFyLWdyYWRpZW50LTE3IiBncmFkaWVudFRyYW5zZm9ybT0ibWF0cml4KDEsIDAsIDAsIDEsIC0zNDYuNTM1MzM5LCAtNjE5LjMyODc5NikiIHkyPSI0NzAuNTkiIHgyPSI1NjcuOSIgeTE9IjQ3MC41OSIgeDE9IjQ3MC4xMyIgaWQ9ImxpbmVhci1ncmFkaWVudC00NSIvPiYjeGE7ICAgIDxsaW5lYXJHcmFkaWVudCBncmFkaWVudFRyYW5zZm9ybT0ibWF0cml4KDEsIDAsIDAsIDEsIC0xNzMuMjY3NjcsIC0zMDkuNjY0Mzk4KSIgZ3JhZGllbnRVbml0cz0idXNlclNwYWNlT25Vc2UiIHkyPSI0MDkuMyIgeDI9IjQ5My4wOSIgeTE9IjQwOS4zIiB4MT0iNDIxLjA3IiBpZD0ibGluZWFyLWdyYWRpZW50LTQ2Ij4mI3hhOyAgICAgIDxzdG9wIHN0b3AtY29sb3I9IiM4MDAwNGEiIG9mZnNldD0iMCIvPiYjeGE7ICAgICAgPHN0b3Agc3RvcC1jb2xvcj0iI2M3MDAzMyIgb2Zmc2V0PSIxIi8+JiN4YTsgICAgPC9saW5lYXJHcmFkaWVudD4mI3hhOyAgICA8bGluZWFyR3JhZGllbnQgeGxpbms6aHJlZj0iI2xpbmVhci1ncmFkaWVudCIgZ3JhZGllbnRUcmFuc2Zvcm09Im1hdHJpeCgxLCAwLCAwLCAxLCAtMzQ2LjUzNTMzOSwgLTYxOS4zMjg3OTYpIiB5Mj0iNTk4Ljg0IiB4Mj0iNTcwLjM0IiB5MT0iNjgxLjA3IiB4MT0iNTIyLjg2IiBpZD0ibGluZWFyLWdyYWRpZW50LTQ3Ii8+JiN4YTsgICAgPGxpbmVhckdyYWRpZW50IHhsaW5rOmhyZWY9IiNsaW5lYXItZ3JhZGllbnQtNDYiIGdyYWRpZW50VHJhbnNmb3JtPSJtYXRyaXgoMSwgMCwgMCwgMSwgLTM0Ni41MzUzMzksIC02MTkuMzI4Nzk2KSIgeTI9IjQ4NC41NyIgeDI9IjUzMy4yOSIgeTE9IjQ4NC41NyIgeDE9IjQ2MC44NCIgaWQ9ImxpbmVhci1ncmFkaWVudC00OCIvPiYjeGE7ICAgIDxsaW5lYXJHcmFkaWVudCB4bGluazpocmVmPSIjbGluZWFyLWdyYWRpZW50LTQ2IiBncmFkaWVudFRyYW5zZm9ybT0ibWF0cml4KDEuMDAyMjksIDAsIDAsIDEsIC0zNDguNDA4NzYsIC02MTkuMzI4Nzk2KSIgeTI9IjQ5NS45MyIgeDI9IjY4Ny43MyIgeTE9IjQ5NS45MyIgeDE9IjY0NC44NyIgaWQ9ImxpbmVhci1ncmFkaWVudC00OSIvPiYjeGE7ICAgIDxsaW5lYXJHcmFkaWVudCB4bGluazpocmVmPSIjbGluZWFyLWdyYWRpZW50LTQyIiBncmFkaWVudFRyYW5zZm9ybT0ibWF0cml4KDEsIDAsIDAsIDEsIC0zNDYuNTM1MzM5LCAtNjE5LjMyODc5NikiIHkyPSI1NTkuNTgiIHgyPSI3MTQuNjEiIHkxPSI1NTkuNTgiIHgxPSI2NjAuODQiIGlkPSJsaW5lYXItZ3JhZGllbnQtNTAiLz4mI3hhOyAgICA8bGluZWFyR3JhZGllbnQgeGxpbms6aHJlZj0iI2xpbmVhci1ncmFkaWVudC0zIiBncmFkaWVudFRyYW5zZm9ybT0ibWF0cml4KDEsIDAsIDAsIDEsIC0zNDYuNTM1MzM5LCAtNjE5LjMyODc5NikiIHkyPSI0MDUuOTUiIHgyPSI1NDIuMzciIHkxPSI0MDUuOTUiIHgxPSI0MjEuMDciIGlkPSJsaW5lYXItZ3JhZGllbnQtNTEiLz4mI3hhOyAgICA8bGluZWFyR3JhZGllbnQgeGxpbms6aHJlZj0iI2xpbmVhci1ncmFkaWVudC04IiBncmFkaWVudFRyYW5zZm9ybT0ibWF0cml4KDEsIDAsIDAsIDEsIC0zNDYuNTM1MzM5LCAtNjE5LjMyODc5NikiIHgyPSIxMDYuODIiIHkxPSIyMTMuNTEiIHgxPSIxMDYuODIiIGlkPSJsaW5lYXItZ3JhZGllbnQtNTIiLz4mI3hhOyAgICA8bGluZWFyR3JhZGllbnQgeGxpbms6aHJlZj0iI2xpbmVhci1ncmFkaWVudC0xOCIgZ3JhZGllbnRUcmFuc2Zvcm09Im1hdHJpeCgxLCAwLCAwLCAxLCAtMzQ2LjUzNTMzOSwgLTYxOS4zMjg3OTYpIiB5Mj0iMzI3LjE3IiB4Mj0iMzIyLjU2IiB5MT0iMzI3LjE3IiB4MT0iMjA3LjE1IiBpZD0ibGluZWFyLWdyYWRpZW50LTUzIi8+JiN4YTsgICAgPGxpbmVhckdyYWRpZW50IGdyYWRpZW50VHJhbnNmb3JtPSJtYXRyaXgoMSwgMCwgMCwgMSwgLTE3My4yNjc2NywgLTMwOS42NjQzOTgpIiBncmFkaWVudFVuaXRzPSJ1c2VyU3BhY2VPblVzZSIgeTI9IjI2MS4zMiIgeDI9IjQ0My43IiB5MT0iMjYxLjMyIiB4MT0iMzIxLjQ3IiBpZD0ibGluZWFyLWdyYWRpZW50LTU0Ij4mI3hhOyAgICAgIDxzdG9wIHN0b3AtY29sb3I9IiNmZmM5MGYiIG9mZnNldD0iMCIvPiYjeGE7ICAgICAgPHN0b3Agc3RvcC1jb2xvcj0iI2RhNWUwMCIgb2Zmc2V0PSIxIi8+JiN4YTsgICAgPC9saW5lYXJHcmFkaWVudD4mI3hhOyAgPC9kZWZzPiYjeGE7ICA8cG9seWdvbiBzdHlsZT0iZmlsbDogcmdiKDI1NSwgMjE3LCAxNTMpOyBzdHJva2Utd2lkdGg6IDBweDsiIHBvaW50cz0iLTY2LjYyOCAtMjA3LjQ5NCAtMzUuMzA3IC0xNzAuMjc0IC01My44MjggLTM0LjA4NCAtNjQuMjU4IC0xMDEuNDc0IC02Ni42MjggLTIwNy40OTQiIGNsYXNzPSJjbHMtODEiLz4mI3hhOyAgPHBvbHlnb24gc3R5bGU9ImZpbGw6IHJnYigyMzQsIDI0MCwgMjQ5KTsgc3Ryb2tlLXdpZHRoOiAwcHg7IiBwb2ludHM9IjMzLjg4MiAzMi43MjYgLTI2LjExOCA4My43MjYgMTA0Ljg4MiAzMi43MjYgMzMuODgyIDMyLjcyNiIgY2xhc3M9ImNscy04NyIvPiYjeGE7ICA8cG9seWdvbiBzdHlsZT0iZmlsbDogcmdiKDE3NiwgMjEwLCAyNTUpOyBzdHJva2Utd2lkdGg6IDBweDsiIHBvaW50cz0iMzYuNDQyIDg2LjExNiAxMDQuODgyIDMyLjcyNiAtMjYuMTE4IDgzLjcyNiAzNi40NDIgODYuMTE2IiBjbGFzcz0iY2xzLTY1Ii8+JiN4YTsgIDxwb2x5Z29uIHN0eWxlPSJmaWxsOiByZ2IoMTMyLCAxODMsIDI1NSk7IHN0cm9rZS13aWR0aDogMHB4OyIgcG9pbnRzPSIxMDQuODgyIDMyLjcyNiAxNzUuMTkyIDQ3LjM1NiAxLjY1MiAxMDcuNTE2IDEwNC44ODIgMzIuNzI2IiBjbGFzcz0iY2xzLTY2Ii8+JiN4YTsgIDxwb2x5Z29uIHN0eWxlPSJmaWxsOiByZ2IoMjM0LCAyNDAsIDI0OSk7IHN0cm9rZS13aWR0aDogMHB4OyIgcG9pbnRzPSItMjYuMTE4IDgzLjcyNiAtNjYuNjI4IDEyMC4wMzYgLTIyLjU3OCAxMjUuNzU2IDM2LjQ0MiA4Ni4xMTYgLTI2LjExOCA4My43MjYiIGNsYXNzPSJjbHMtODciLz4mI3hhOyAgPHBvbHlnb24gc3R5bGU9ImZpbGw6IHJnYigxMzIsIDE4MywgMjU1KTsgc3Ryb2tlLXdpZHRoOiAwcHg7IiBwb2ludHM9Ii02Ni42MjggMTIwLjAzNiAtNzIuNzg4IDE2NS44MzYgLTIyLjU3OCAxMjUuNzU2IC02Ni42MjggMTIwLjAzNiIgY2xhc3M9ImNscy02NiIvPiYjeGE7ICA8cG9seWdvbiBzdHlsZT0iZmlsbDogcmdiKDE3NiwgMjEwLCAyNTUpOyBzdHJva2Utd2lkdGg6IDBweDsiIHBvaW50cz0iLTE0Mi4zODggMTk2LjY3NiAtMTQyLjM4OCAyMTkuMTM2IC03Mi43ODggMTY1LjgzNiAtNjYuNjI4IDEyMC4wMzYgLTE0Mi4zODggMTk2LjY3NiIgY2xhc3M9ImNscy02NSIvPiYjeGE7ICA8cG9seWdvbiBzdHlsZT0iZmlsbDogcmdiKDEzMiwgMTgzLCAyNTUpOyBzdHJva2Utd2lkdGg6IDBweDsiIHBvaW50cz0iLTE0Mi4zODggMjE5LjEzNiAtMTYwLjg4OCAyMDkuMDA2IC0xNDIuMzg4IDE5Ni42NzYgLTE0Mi4zODggMjE5LjEzNiIgY2xhc3M9ImNscy02NiIvPiYjeGE7ICA8cG9seWdvbiBzdHlsZT0iZmlsbDogcmdiKDEwMiwgMTEzLCAxMzApOyBzdHJva2Utd2lkdGg6IDBweDsiIHBvaW50cz0iLTE2OC4zNzggMjE2LjA1NiAtMTQyLjM4OCAyMTkuMTM2IC0xNjAuODg4IDIwOS4wMDYgLTE2OC4zNzggMjE2LjA1NiIgY2xhc3M9ImNscy02NyIvPiYjeGE7ICA8cGF0aCBzdHlsZT0iZmlsbDogcmdiKDM2LCA0NSwgNTcpOyBzdHJva2Utd2lkdGg6IDBweDsiIGQ9Ik0gLTE3My4yMTggMjQ5LjA4NiBMIC0xNzMuMjE4IDIzOC41MTYgQyAtMTczLjIxOCAyMjkuMjI2IC0xNjguMzY4IDIxNi4wNTYgLTE2OC4zNjggMjE2LjA1NiBMIC0xNDIuMzc4IDIxOS4xMzYgTCAtMTczLjIxOCAyNDkuMDg2IFoiIGNsYXNzPSJjbHMtNjIiLz4mI3hhOyAgPHBhdGggc3R5bGU9ImZpbGw6IHJnYig4LCA0MywgOTQpOyBzdHJva2Utd2lkdGg6IDBweDsiIGQ9Ik0gLTE3My4yMTggMjQ5LjA4NiBDIC0xNzEuNzQ4IDI1Mi44MzYgLTE2OC4zNjggMjUzLjA0NiAtMTY4LjM2OCAyNTMuMDQ2IEwgLTcwLjEzOCAxODkuMTc2IEwgLTcyLjc3OCAxNjUuODM2IEwgLTE0Mi4zNjggMjE5LjEzNiBDIC0xNDIuMzY4IDIxOS4xMzYgLTE3NC42ODggMjQ1LjMzNiAtMTczLjIxOCAyNDkuMDg2IFoiIGNsYXNzPSJjbHMtNjEiLz4mI3hhOyAgPHBvbHlnb24gc3R5bGU9ImZpbGw6IHJnYigzNiwgNDUsIDU3KTsgc3Ryb2tlLXdpZHRoOiAwcHg7IiBwb2ludHM9Ii0yMi41NzggMTI1Ljc1NiAyLjUzMiAxNDAuMjk2IC03MC4xNDggMTg5LjE4NiAtNzIuNzg4IDE2NS44MzYgLTIyLjU3OCAxMjUuNzU2IiBjbGFzcz0iY2xzLTYyIi8+JiN4YTsgIDxwb2x5Z29uIHN0eWxlPSJmaWxsOiByZ2IoMCwgMTIsIDM4KTsgc3Ryb2tlLXdpZHRoOiAwcHg7IiBwb2ludHM9Ii0yMi41NzggMTI1Ljc1NiA0NC44NjIgMTI1Ljc1NiAyLjUzMiAxNDAuMjk2IC0yMi41NzggMTI1Ljc1NiIgY2xhc3M9ImNscy05NSIvPiYjeGE7ICA8cG9seWdvbiBzdHlsZT0iZmlsbDogcmdiKDEwMiwgMTEzLCAxMzApOyBzdHJva2Utd2lkdGg6IDBweDsiIHBvaW50cz0iMTIzLjM5MiA2OS4wNTYgMjA2Ljc5MiA5My4xNDYgNTcuNTQyIDExNi44NTYgMTIzLjM5MiA2OS4wNTYiIGNsYXNzPSJjbHMtNjciLz4mI3hhOyAgPHBvbHlnb24gc3R5bGU9ImZpbGw6IHJnYigwLCAxMiwgMzgpOyBzdHJva2Utd2lkdGg6IDBweDsiIHBvaW50cz0iMTc1LjE5MiA0Ny4zNTYgMjM3LjUxMiAxMDkuMDQ2IDEyMy4zOTIgNjkuMDU2IDE3NS4xOTIgNDcuMzU2IiBjbGFzcz0iY2xzLTk1Ii8+JiN4YTsgIDxwb2x5Z29uIHN0eWxlPSJmaWxsOiByZ2IoMjExLCAyMjYsIDI1NSk7IHN0cm9rZS13aWR0aDogMHB4OyIgcG9pbnRzPSI1Ny41NDIgMTE2Ljg1NiA0NC44NjIgMTI1Ljc1NiAtMjIuNTc4IDEyNS43NTYgMzYuNDQyIDg2LjExNiAxNzAuODUgNDguODk5IDU3LjU0MiAxMTYuODU2IiBjbGFzcz0iY2xzLTYzIi8+JiN4YTsgIDxwb2x5Z29uIHN0eWxlPSJmaWxsOiByZ2IoMzYsIDQ1LCA1Nyk7IHN0cm9rZS13aWR0aDogMHB4OyIgcG9pbnRzPSI1Ny41NDIgMTE2Ljg1NiA0NC44NjIgMTI1Ljc1NiAyMzcuNTEyIDEwOS4wNDYgMTk2LjcxMiA5NC43NDYgNTcuNTQyIDExNi44NTYiIGNsYXNzPSJjbHMtNjIiLz4mI3hhOyAgPHBhdGggc3R5bGU9ImZpbGw6IHJnYigwLCAxMiwgMzgpOyBzdHJva2Utd2lkdGg6IDBweDsiIGQ9Ik0gLTE2OC4zNzggMjUzLjA1NiBDIC0xNjguMzc4IDI1My4wNTYgLTE0My41MTggMjU5LjI2NiAtMTM3LjA1OCAyNTUuODU2IEMgLTEzMC41OTggMjUyLjQ0NiAtMTEyLjY2OCAyMzIuNTc2IC0xMTIuNjY4IDIzMi41NzYgTCAtMTMwLjU5OCAyMjguNDk2IEwgLTE2OC4zNjggMjUzLjA1NiBMIC0xNjguMzc4IDI1My4wNTYgWiIgY2xhc3M9ImNscy05NSIvPiYjeGE7ICA8cG9seWdvbiBzdHlsZT0iZmlsbDogcmdiKDcsIDI0LCA1Myk7IHN0cm9rZS13aWR0aDogMHB4OyIgcG9pbnRzPSItNS44NTggMTYyLjIwNiA0NC44NjIgMTI1Ljc1NiAyLjUzMiAxNDAuMjk2IC0xMzAuNTk4IDIyOC40OTYgLTExMi42NjggMjMyLjU3NiAtNS44NTggMTYyLjIwNiIgY2xhc3M9ImNscy01OSIvPiYjeGE7ICA8cGF0aCBzdHlsZT0iZmlsbDogcmdiKDAsIDEyLCAzOCk7IHN0cm9rZS13aWR0aDogMHB4OyIgZD0iTSAxMzguNjYyIDExNy42MjYgTCAyMjEuOTEyIDIxNC4wNzYgTCAxNjIuNDEyIDE0Ny4wOTYgTCAxNjUuMzQyIDE5NC40MDYgTCAxNTAuNzIyIDIzNS42NTYgTCAxMzUuMjYyIDE4MS4wNjYgQyAxMzUuMjYyIDE4MS4wNjYgMTMwLjU2MiAxNzAuNjU2IDExOC44NTIgMTU5LjM1NiBDIDExMS4zNjIgMTUyLjEyNiA5Mi4yMjIgMTQ2LjcwNiA4NS41MjIgMTQ1LjMzNiBDIDc4LjgyMiAxNDMuOTY2IDY2LjA2MiAxNDMuMTE2IDUzLjM4MiAxNDUuMTY2IEMgNDAuNzAyIDE0Ny4yMTYgLTUuODQ4IDE2Mi4yMTYgLTUuODQ4IDE2Mi4yMTYgTCA0NC44NzIgMTI1Ljc2NiBMIDEzOC42NjIgMTE3LjYzNiBMIDEzOC42NjIgMTE3LjYyNiBaIiBjbGFzcz0iY2xzLTk1Ii8+JiN4YTsgIDxwb2x5Z29uIHN0eWxlPSJmaWxsOiByZ2IoMCwgMjAzLCAyNTUpOyBzdHJva2Utd2lkdGg6IDBweDsiIHBvaW50cz0iMTI2LjYxMiAyNDIuMTc2IDE1MC43MTIgMjM1LjY0NiAxMzUuMjUyIDE4MS4wNTYgMTI2LjYxMiAyNDIuMTc2IiBjbGFzcz0iY2xzLTkxIi8+JiN4YTsgIDxwb2x5Z29uIHN0eWxlPSJmaWxsOiByZ2IoMCwgMjIwLCAyNTUpOyBzdHJva2Utd2lkdGg6IDBweDsiIHBvaW50cz0iMTUzLjgwMiAyNzguMjg2IDEyNi42MTIgMjQyLjE3NiAxNTAuNzEyIDIzNS42NDYgMTUzLjgwMiAyNzguMjg2IiBjbGFzcz0iY2xzLTkyIi8+JiN4YTsgIDxwb2x5Z29uIHN0eWxlPSJmaWxsOiByZ2IoMCwgMTIyLCAyNTUpOyBzdHJva2Utd2lkdGg6IDBweDsiIHBvaW50cz0iOTcuNjMyIDMzMC42NDYgMTUzLjgwMiAyNzguMjg2IDEyNi42MTIgMjQyLjE3NiA5Ny42MzIgMzMwLjY0NiIgY2xhc3M9ImNscy05NyIvPiYjeGE7ICA8cG9seWdvbiBzdHlsZT0iZmlsbDogcmdiKDEwNiwgMjMxLCAyNTUpOyBzdHJva2Utd2lkdGg6IDBweDsiIHBvaW50cz0iNTUuOTQyIDMyMi40MTYgMTI2LjYxMiAyNDIuMTc2IDk3LjYzMiAzMzAuNjQ2IDU1Ljk0MiAzMjIuNDE2IiBjbGFzcz0iY2xzLTcwIi8+JiN4YTsgIDxwb2x5Z29uIHN0eWxlPSJmaWxsOiByZ2IoMTU5LCAyMzgsIDI0Nyk7IHN0cm9rZS13aWR0aDogMHB4OyIgcG9pbnRzPSI2OS4wNzIgMzU2LjM3NiAtMS40MjggMzM3LjA4NiA1NS45NDIgMzIyLjQxNiA5Ny42MzIgMzMwLjY0NiA2OS4wNzIgMzU2LjM3NiIgY2xhc3M9ImNscy03MSIvPiYjeGE7ICA8cG9seWdvbiBzdHlsZT0iZmlsbDogcmdiKDAsIDIwMywgMjU1KTsgc3Ryb2tlLXdpZHRoOiAwcHg7IiBwb2ludHM9IjE1My44MDIgMjc4LjI4NiAxNTguODYyIDMzMy4yMjYgNjkuMDcyIDM1Ni4zNzYgMTUzLjgwMiAyNzguMjg2IiBjbGFzcz0iY2xzLTkxIi8+JiN4YTsgIDxwb2x5Z29uIHN0eWxlPSJmaWxsOiByZ2IoMCwgMjAzLCAyNTUpOyBzdHJva2Utd2lkdGg6IDBweDsiIHBvaW50cz0iMTA4LjQzMiAzODAuMDQ2IDY5LjA3MiAzNTYuMzc2IDE1OC44NjIgMzMzLjIyNiAxMDguODk2IDM4MC4yMzciIGNsYXNzPSJjbHMtOTEiLz4mI3hhOyAgPHBvbHlnb24gc3R5bGU9ImZpbGw6IHJnYigxMDYsIDIzMSwgMjU1KTsgc3Ryb2tlLXdpZHRoOiAwcHg7IiBwb2ludHM9IjkyLjg1MiAzOTUuMzM2IDEuNjUyIDM4MC4wNDYgNjkuMDcyIDM1Ni4zNzYgMTA4LjkzOCAzODAuMjM2IDkyLjg1MiAzOTUuMzM2IiBjbGFzcz0iY2xzLTcwIi8+JiN4YTsgIDxwb2x5Z29uIHN0eWxlPSJmaWxsOiByZ2IoMCwgMTIyLCAyNTUpOyBzdHJva2Utd2lkdGg6IDBweDsiIHBvaW50cz0iMTk0Ljg4MiAzNjEuMDA2IDE1OC44NjIgMzMzLjIyNiA5Mi44NTIgMzk1LjMzNiAxOTQuODgyIDM2MS4wMDYiIGNsYXNzPSJjbHMtOTciLz4mI3hhOyAgPHBvbHlnb24gc3R5bGU9ImZpbGw6IHJnYigxMDYsIDIzMSwgMjU1KTsgc3Ryb2tlLXdpZHRoOiAwcHg7IiBwb2ludHM9IjExNi45MjIgNDQzLjg1NiA1Ny4yMzIgNDE4LjEyNiA5My40NzQgMzk1LjEzIDE5NC44ODIgMzYxLjAwNiAxMTYuOTIyIDQ0My44NTYiIGNsYXNzPSJjbHMtNzAiLz4mI3hhOyAgPHBvbHlnb24gc3R5bGU9ImZpbGw6IHJnYigwLCA0OSwgMTE2KTsgc3Ryb2tlLXdpZHRoOiAwcHg7IiBwb2ludHM9IjIzMC4xNzIgMjkwLjMxNiAyNTYuNjgyIDE3My4zMjYgMjM3LjUxMiAxMDkuMDQ2IDIxNS45OTIgMjQyLjE3NiAyMzAuMTcyIDI5MC4zMTYiIGNsYXNzPSJjbHMtOTAiLz4mI3hhOyAgPHBvbHlnb24gc3R5bGU9ImZpbGw6IHJnYigzNiwgNDUsIDU3KTsgc3Ryb2tlLXdpZHRoOiAwcHg7IiBwb2ludHM9IjE2NS4zMzIgMTk0LjM5NiAyMTcuMzYyIDIzMy42ODYgMjIxLjkwMiAyMTQuMDc2IDE2Mi40MDIgMTQ3LjA4NiAxNjUuMzMyIDE5NC4zOTYiIGNsYXNzPSJjbHMtNjIiLz4mI3hhOyAgPHBvbHlnb24gc3R5bGU9ImZpbGw6IHJnYigxMCwgMjQsIDM3KTsgc3Ryb2tlLXdpZHRoOiAwcHg7IiBwb2ludHM9IjE1MC43MTIgMjMxLjgxNiAyMTcuMzYyIDIzMy42ODYgMTY1LjMzMiAxOTQuMzk2IDE1MC43MTIgMjMxLjgxNiIgY2xhc3M9ImNscy02MCIvPiYjeGE7ICA8cG9seWdvbiBzdHlsZT0iZmlsbDogcmdiKDAsIDQ5LCAxMTYpOyBzdHJva2Utd2lkdGg6IDBweDsiIHBvaW50cz0iMjE2Ljg4MiAyMzkuODE2IDIxNi44ODIgMjM2LjYxNiAyMTcuMzYyIDIzMy42ODYgMTUwLjcxMiAyMzEuODE2IDE1My44MDIgMjc4LjI4NiAyMTYuODgyIDIzOS44MTYiIGNsYXNzPSJjbHMtOTAiLz4mI3hhOyAgPHBvbHlnb24gc3R5bGU9ImZpbGw6IHJnYigwLCAxMjIsIDI1NSk7IHN0cm9rZS13aWR0aDogMHB4OyIgcG9pbnRzPSIxNTguODYyIDMzMy4yMjYgMjE2Ljg4MiAyMzkuODE2IDE1My44MDIgMjc4LjI4NiAxNTguODYyIDMzMy4yMjYiIGNsYXNzPSJjbHMtOTciLz4mI3hhOyAgPHBvbHlnb24gc3R5bGU9ImZpbGw6IHJnYigwLCA5MiwgMjU1KTsgc3Ryb2tlLXdpZHRoOiAwcHg7IiBwb2ludHM9IjIzMC4xNzIgMjkwLjMxNiAyMTYuODgyIDIzOS44MTYgMTU4Ljg2MiAzMzMuMjI2IDIzMC4xNzIgMjkwLjMxNiIgY2xhc3M9ImNscy05NCIvPiYjeGE7ICA8cG9seWdvbiBzdHlsZT0iZmlsbDogcmdiKDAsIDY5LCAxNzgpOyBzdHJva2Utd2lkdGg6IDBweDsiIHBvaW50cz0iMTk0Ljg4MiAzNjEuMDA2IDE1OC44NjIgMzMzLjIyNiAyMzAuMTcyIDI5MC4zMTYgMTk0Ljg4MiAzNjEuMDA2IiBjbGFzcz0iY2xzLTkzIi8+JiN4YTsgIDxwb2x5Z29uIHN0eWxlPSJmaWxsOiByZ2IoMCwgNjksIDE3OCk7IHN0cm9rZS13aWR0aDogMHB4OyIgcG9pbnRzPSIyNzUuMjMyIDIyNC4wNDYgMjMwLjE3MiAyOTAuMzE2IDI1Ni42ODIgMTczLjMyNiAyNzUuMjMyIDIyNC4wNDYiIGNsYXNzPSJjbHMtOTMiLz4mI3hhOyAgPHBvbHlnb24gc3R5bGU9ImZpbGw6IHJnYigxNiwgMCwgMzApOyBzdHJva2Utd2lkdGg6IDBweDsiIHBvaW50cz0iMjE5LjU3MiA0MTUuMzE2IDI1My41ODIgMzU0LjkxNiAxMTYuOTIyIDQ0My44NTYgMjE5LjU3MiA0MTUuMzE2IiBjbGFzcz0iY2xzLTU4Ii8+JiN4YTsgIDxwb2x5Z29uIHN0eWxlPSJmaWxsOiByZ2IoMCwgMTIyLCAyNTUpOyBzdHJva2Utd2lkdGg6IDBweDsiIHBvaW50cz0iMjc1LjIzMiAyMjQuMDQ2IDI5MS42NzIgMjcxLjkzNiAxOTQuODgyIDM2MS4wMDYgMjMwLjE3MiAyOTAuMzE2IDI3NS4yMzIgMjI0LjA0NiIgY2xhc3M9ImNscy05NyIvPiYjeGE7ICA8cG9seWdvbiBzdHlsZT0iZmlsbDogdXJsKCcjbGluZWFyLWdyYWRpZW50Jyk7IHN0cm9rZS13aWR0aDogMHB4OyIgcG9pbnRzPSIzMjEuNDEyIDI4Ni40MDYgMjgwLjYxMiAzOTkuMzg2IDI4NS42MTIgMjcyLjQwNiAzMjEuNDEyIDI4Ni40MDYiIGNsYXNzPSJjbHMtMSIvPiYjeGE7ICA8cG9seWdvbiBzdHlsZT0iZmlsbDogdXJsKCcjbGluZWFyLWdyYWRpZW50LTInKTsgc3Ryb2tlLXdpZHRoOiAwcHg7IiBwb2ludHM9IjE5Ni45MTIgNDQzLjg1NiAyODAuNjEyIDM5OS4zODYgMjg0LjMxMiAzNTYuNzE2IDIxOS41NzIgNDE1LjMxNiAxOTYuOTEyIDQ0My44NTYiIGNsYXNzPSJjbHMtNDgiLz4mI3hhOyAgPHBhdGggc3R5bGU9ImZpbGw6IHJnYigxNiwgMCwgMzApOyBzdHJva2Utd2lkdGg6IDBweDsiIGQ9Ik0gMTgzLjU1MiA0NjIuOTU2IEMgMTg1LjI1MiA0NjIuOTU2IDI0MC42MDIgNDM1LjcwNiAyNDAuNjAyIDQzNS43MDYgTCAyODAuNjAyIDM5OS4zODYgTCAxOTYuOTAyIDQ0My44NTYgTCAxODUuMjQyIDQ2MS4xODYgQyAxODUuMjQyIDQ2MS4xODYgMTgxLjg1MiA0NjIuOTQ2IDE4My41NDIgNDYyLjk0NiBMIDE4My41NTIgNDYyLjk1NiBaIiBjbGFzcz0iY2xzLTU4Ii8+JiN4YTsgIDxwYXRoIHN0eWxlPSJmaWxsOiByZ2IoMTYsIDAsIDMwKTsgc3Ryb2tlLXdpZHRoOiAwcHg7IiBkPSJNIDM0Mi43NzIgMjI2LjI4NiBMIDM0MC44MzIgMzc4LjA0NiBDIDM0MC44MzIgMzc4LjA0NiAyNzguNDcyIDQ2My45NTYgMjc2Ljk1MiA0NjQuNzY2IEMgMjc1LjQzMiA0NjUuNTc2IDI2OS43OTIgNDY2LjU4NiAyNjguMDUyIDQ2NC43NjYgQyAyNjYuMzEyIDQ2Mi45NDYgMjgwLjYwMiAzOTkuMzg2IDI4MC42MDIgMzk5LjM4NiBMIDM0Mi43NzIgMjI2LjI4NiBaIiBjbGFzcz0iY2xzLTU4Ii8+JiN4YTsgIDxwYXRoIHN0eWxlPSJmaWxsOiByZ2IoMTYsIDAsIDMwKTsgc3Ryb2tlLXdpZHRoOiAwcHg7IiBkPSJNIDM5Ny4zNjIgMzI1LjY2NiBDIDM5Ny4zNjIgMzI1LjY2NiAzNjQuMDQyIDQzNC44MTYgMzYwLjk3MiA0NDAuMzg2IEMgMzU3LjkwMiA0NDUuOTU2IDM0OC45NzIgNDQ0LjA3NiAzNDUuODcyIDQ0MC4zODYgQyAzNDIuNzcyIDQzNi42OTYgMzQwLjg0MiAzNzguMDU2IDM0MC44NDIgMzc4LjA1NiBMIDM5Ny4zNjIgMzI1LjY3NiBMIDM5Ny4zNjIgMzI1LjY2NiBaIiBjbGFzcz0iY2xzLTU4Ii8+JiN4YTsgIDxwYXRoIHN0eWxlPSJmaWxsOiByZ2IoMTYsIDAsIDMwKTsgc3Ryb2tlLXdpZHRoOiAwcHg7IiBkPSJNIDQwNy40MzIgMjM5LjgxNiBMIDM5Ny4zNjIgMzIxLjkwNiBDIDM5Ny4zNjIgMzIxLjkwNiA0MTQuMzgyIDQwMS4xNzYgNDE3LjQ5MiA0MDcuMDc2IEMgNDIwLjYwMiA0MTIuOTc2IDQyNi43NTIgNDExLjY2NiA0MjkuMTAyIDQwNy4wNzYgQyA0MzEuNDYyIDQwMi40ODYgNDU1Ljk0MiAzMDIuMTU2IDQ1NS45NDIgMzAyLjE1NiBMIDQwNy40MjIgMjM5LjgwNiBMIDQwNy40MzIgMjM5LjgxNiBaIiBjbGFzcz0iY2xzLTU4Ii8+JiN4YTsgIDxwYXRoIHN0eWxlPSJmaWxsOiByZ2IoMTYsIDAsIDMwKTsgc3Ryb2tlLXdpZHRoOiAwcHg7IiBkPSJNIDQzMi45ODIgMTk5LjY4NiBMIDQ0OC44NTIgMzA2LjA0NiBDIDQ0OC44NTIgMzA2LjA0NiA0NzUuNzIyIDM1Mi45MjYgNDc5LjgyMiAzNTcuOTA2IEMgNDgzLjkyMiAzNjIuODg2IDQ5MC44MDIgMzYzLjM5NiA0OTEuNDMyIDM1Ni43MjYgQyA0OTIuMDYyIDM1MC4wNDYgNDg3LjU2MiAyNDEuMzk2IDQ4Ny41NjIgMjQxLjM5NiBMIDQzMi45NzIgMTk5LjY5NiBMIDQzMi45ODIgMTk5LjY4NiBaIiBjbGFzcz0iY2xzLTU4Ii8+JiN4YTsgIDxwYXRoIHN0eWxlPSJmaWxsOiByZ2IoMTYsIDAsIDMwKTsgc3Ryb2tlLXdpZHRoOiAwcHg7IiBkPSJNIDUyMi44MDIgMTQxLjExNiBMIDUxMi43MzIgMTk1LjcwNiBDIDUxMi43MzIgMTk1LjcwNiA1NjUuMzgyIDIzOC4wMjYgNTcwLjAzMiAyNDEuMzg2IEMgNTc0LjY4MiAyNDQuNzQ2IDU3NC42ODIgMjM5LjgxNiA1NzQuNjgyIDIzOS44MTYgTCA1NzEuNTgyIDIzMi4wODYgTCA1MjIuODAyIDE0MS4xMDYgTCA1MjIuODAyIDE0MS4xMTYgWiIgY2xhc3M9ImNscy01OCIvPiYjeGE7ICA8cG9seWdvbiBzdHlsZT0iZmlsbDogdXJsKCcjbGluZWFyLWdyYWRpZW50LTMnKTsgc3Ryb2tlLXdpZHRoOiAwcHg7IiBwb2ludHM9Ii02Ni42MjggMTIwLjAzNiAtMTAyLjg1OCAtMjQuMTY0IC04Mi4yNzggLTMyLjM1NCAtNjYuNjI4IDEyMC4wMzYiIGNsYXNzPSJjbHMtNDkiLz4mI3hhOyAgPHBvbHlnb24gc3R5bGU9ImZpbGw6IHJnYigyMzgsIDcsIDgyKTsgc3Ryb2tlLXdpZHRoOiAwcHg7IiBwb2ludHM9Ii01Ljg1OCAtMTc0LjUzNCAtNDIuODY4IC0xNTcuMjA0IC02Ni42MjggMTIwLjAzNiAtNDcuNjg4IC0zMS44NTQgLTUuODU4IC0xNzQuNTM0IiBjbGFzcz0iY2xzLTc5Ii8+JiN4YTsgIDxwb2x5Z29uIHN0eWxlPSJmaWxsOiB1cmwoJyNsaW5lYXItZ3JhZGllbnQtNCcpOyBzdHJva2Utd2lkdGg6IDBweDsiIHBvaW50cz0iMTAuNzMyIC0yNTUuNDA0IC02LjI2OCAtMTczLjExNCAtNDMuMjc4IC0xNTQuODM0IDEwLjczMiAtMjU1LjQwNCIgY2xhc3M9ImNscy00NyIvPiYjeGE7ICA8cG9seWdvbiBzdHlsZT0iZmlsbDogcmdiKDI1NSwgMTExLCA0MCk7IHN0cm9rZS13aWR0aDogMHB4OyIgcG9pbnRzPSIxMjYuNjEyIC0yMDcuNDk0IDI5LjI5MiAtMTE5LjgwNCA3OS40NjIgLTIyMS4yMTQgMTI2LjYxMiAtMjA3LjQ5NCIgY2xhc3M9ImNscy03MyIvPiYjeGE7ICA8cG9seWdvbiBzdHlsZT0iZmlsbDogcmdiKDI1NSwgMTY2LCAwKTsgc3Ryb2tlLXdpZHRoOiAwcHg7IiBwb2ludHM9Ii02Ni42MjggLTIwNy40OTQgLTEwMi44NTggLTI0LjE2NCAtNDIuODY4IC0xNTcuMjA0IC02Ni42MjggLTIwNy40OTQiIGNsYXNzPSJjbHMtODQiLz4mI3hhOyAgPHBvbHlnb24gc3R5bGU9ImZpbGw6IHVybCgnI2xpbmVhci1ncmFkaWVudC01Jyk7IHN0cm9rZS13aWR0aDogMHB4OyIgcG9pbnRzPSItNDcuNjg4IDgzLjcyNiAtNjYuNjI4IDEyMC4wMzYgLTQ3LjY4OCAtMzIuMzU0IC0yMC42NDggLTEyNC44NzQgLTQ3LjY4OCA4My43MjYiIGNsYXNzPSJjbHMtNTMiLz4mI3hhOyAgPHBvbHlnb24gc3R5bGU9ImZpbGw6IHJnYigyNTUsIDIxNywgMTUzKTsgc3Ryb2tlLXdpZHRoOiAwcHg7IiBwb2ludHM9Ii0yNi4xMTggLTEwMS43NTQgNzUuNjMyIC0yMTMuNDc0IDY0Ljg1MiAtMTkxLjY4NCAyOS4yOTIgLTExOS44MDQgLTQwLjA3OCAyNS4wMzYgLTI2LjExOCAtMTAxLjc1NCIgY2xhc3M9ImNscy04MSIvPiYjeGE7ICA8cG9seWdvbiBzdHlsZT0iZmlsbDogcmdiKDI1NSwgMTIzLCA5Nyk7IHN0cm9rZS13aWR0aDogMHB4OyIgcG9pbnRzPSItNS44NTggLTE3NS40OTQgMzYuNDQyIC0xOTguODg0IC0wLjQwOCAtMTI5Ljk3NCAtMjguMDE4IC05OS42NjQgLTUuODU4IC0xNzUuNDk0IiBjbGFzcz0iY2xzLTcyIi8+JiN4YTsgIDxwb2x5Z29uIHN0eWxlPSJmaWxsOiByZ2IoMTEyLCAyOCwgOTkpOyBzdHJva2Utd2lkdGg6IDBweDsiIHBvaW50cz0iLTQ3LjY4OCA4My43MjYgNDkuMTUyIC0xMzcuNjk0IDI5LjI5MiAtMTE5LjgwNCAtNDAuMDc4IDI1LjAzNiAtNDcuNjg4IDgzLjcyNiIgY2xhc3M9ImNscy01NyIvPiYjeGE7ICA8cG9seWdvbiBzdHlsZT0iZmlsbDogcmdiKDI1NSwgMjE3LCAxNTMpOyBzdHJva2Utd2lkdGg6IDBweDsiIHBvaW50cz0iOTcuNjMyIC0yODkuOTk0IDM2LjQ0MiAtMTk4Ljg4NCAtNS44NTggLTE3NS40OTQgNTcuNTQyIC0yNTMuNDQ0IDk3LjYzMiAtMjg5Ljk5NCIgY2xhc3M9ImNscy04MSIvPiYjeGE7ICA8cG9seWdvbiBzdHlsZT0iZmlsbDogcmdiKDI1NSwgMCwgODMpOyBzdHJva2Utd2lkdGg6IDBweDsiIHBvaW50cz0iNzkuNDYyIC0yMjEuMjE0IDk3LjYzMiAtMjg5Ljk5NCAzNi40NDIgLTE5OC44ODQgNzkuNDYyIC0yMjEuMjE0IiBjbGFzcz0iY2xzLTg1Ii8+JiN4YTsgIDxwb2x5Z29uIHN0eWxlPSJmaWxsOiByZ2IoMjUwLCAyNDAsIDIwMik7IHN0cm9rZS13aWR0aDogMHB4OyIgcG9pbnRzPSItMC40MDggLTEyOS45NzQgNzUuNjMyIC0yMTMuNDc0IDc5LjQ2MiAtMjIxLjIxNCAzNi40NDIgLTE5OC44ODQgLTAuNDA4IC0xMjkuOTc0IiBjbGFzcz0iY2xzLTgyIi8+JiN4YTsgIDxwb2x5Z29uIHN0eWxlPSJmaWxsOiByZ2IoMjU1LCAyMTcsIDE1Myk7IHN0cm9rZS13aWR0aDogMHB4OyIgcG9pbnRzPSIxNzEuNDkyIC0zMDkuNjY0IDE2Mi40MDIgLTI1MC4yMTQgNzkuNDYyIC0yMjEuMjE0IDE3MS40OTIgLTMwOS42NjQiIGNsYXNzPSJjbHMtODEiLz4mI3hhOyAgPHBvbHlnb24gc3R5bGU9ImZpbGw6IHVybCgnI2xpbmVhci1ncmFkaWVudC02Jyk7IHN0cm9rZS13aWR0aDogMHB4OyIgcG9pbnRzPSIyNzIuODkyIC0zMDkuNjY0IDEyNi42MTIgLTIwNy40OTQgNzkuNDYyIC0yMjEuMjE0IDI3Mi44OTIgLTMwOS42NjQiIGNsYXNzPSJjbHMtNTQiLz4mI3hhOyAgPHBvbHlnb24gc3R5bGU9ImZpbGw6IHVybCgnI2xpbmVhci1ncmFkaWVudC03Jyk7IHN0cm9rZS13aWR0aDogMHB4OyIgcG9pbnRzPSIxMjguOTEyIC0yMDkuNDg0IDEwOC41MjIgLTE3Ni45MjQgNDguNzg3IC0xMzcuNjU4IDEyOC45MTIgLTIwOS40ODQiIGNsYXNzPSJjbHMtNTIiLz4mI3hhOyAgPHBvbHlnb24gc3R5bGU9ImZpbGw6IHVybCgnI2xpbmVhci1ncmFkaWVudC04Jyk7IHN0cm9rZS13aWR0aDogMHB4OyIgcG9pbnRzPSItMjUuMTg4IDY2LjY4NiA1LjgwMiAtMTAuODM0IDAuNzMyIC0yNC4zODQgLTY2LjYyOCAxMjAuMDM2IC0yMi41NzggODAuNzE2IC0yNS4xODggNjYuNjg2IiBjbGFzcz0iY2xzLTUwIi8+JiN4YTsgIDxwb2x5bGluZSBzdHlsZT0iZmlsbDogcmdiKDI1MCwgMjQwLCAyMDIpOyBzdHJva2Utd2lkdGg6IDBweDsiIHBvaW50cz0iNDguOTcyIC0xMzcuOTk2IC0xNS4wODggOS41NDYgLTIyLjc3OCA1OC4yMjYgLTUuMjI4IC0xMS41OTQgMTEzLjQ5MiAtMTg2LjgxNCIgY2xhc3M9ImNscy04MiIvPiYjeGE7ICA8cG9seWdvbiBzdHlsZT0iZmlsbDogcmdiKDI1NSwgMTA2LCAzOCk7IHN0cm9rZS13aWR0aDogMHB4OyIgcG9pbnRzPSIxMzIuMTYyIC0yMDcuNDk0IDIxOS41NzIgLTI1MC4yMTQgMjcyLjg5MiAtMzA5LjY2NCAxMjYuNjEyIC0yMDcuNDk0IDEzMi4xNjIgLTIwNy40OTQiIGNsYXNzPSJjbHMtNzUiLz4mI3hhOyAgPHBvbHlnb24gc3R5bGU9ImZpbGw6IHVybCgnI2xpbmVhci1ncmFkaWVudC05Jyk7IHN0cm9rZS13aWR0aDogMHB4OyIgcG9pbnRzPSI1LjgwMiAtMTAuODM0IDg2LjA5MiAtMTIyLjEwNCAxMjMuMzkyIC0xNzQuNTM0IDIxOS41NzIgLTI1MC4yMTQgMTI2LjYxMiAtMjA3LjQ5NCAtMC4zNzggLTE4LjY3NCA1LjgwMiAtMTAuODM0IiBjbGFzcz0iY2xzLTUxIi8+JiN4YTsgIDxwb2x5Z29uIHN0eWxlPSJmaWxsOiB1cmwoJyNsaW5lYXItZ3JhZGllbnQtMTAnKTsgc3Ryb2tlLXdpZHRoOiAwcHg7IiBwb2ludHM9IjEzLjE2MiAtMi40MjQgLTI1LjE4OCA2Ni42ODYgNS44MDIgLTEwLjgzNCAxMy4xNjIgLTIuNDI0IiBjbGFzcz0iY2xzLTE4Ii8+JiN4YTsgIDxwb2x5Z29uIHN0eWxlPSJmaWxsOiB1cmwoJyNsaW5lYXItZ3JhZGllbnQtMTEnKTsgc3Ryb2tlLXdpZHRoOiAwcHg7IiBwb2ludHM9IjE1My43OTIgLTE1OS40NzQgMTEzLjQ5MiAtODMuODI0IDEzLjE2MiAtMi40MjQgNS44MDIgLTEwLjgzNCA4OC40NTggLTEyNy43MTcgMTUzLjc5MiAtMTU5LjQ3NCIgY2xhc3M9ImNscy0xNSIvPiYjeGE7ICA8cG9seWdvbiBzdHlsZT0iZmlsbDogdXJsKCcjbGluZWFyLWdyYWRpZW50LTEyJyk7IHN0cm9rZS13aWR0aDogMHB4OyIgcG9pbnRzPSIxODAuNjUyIC0xNTUuMDk0IDEzNS44NDIgLTEzNC4wNTQgMTUxLjc3MiAtMTU5LjQ3NCAyMDguMTQyIC0xOTEuNjg0IDE4MC42NTIgLTE1NS4wOTQiIGNsYXNzPSJjbHMtMTYiLz4mI3hhOyAgPHBvbHlnb24gc3R5bGU9ImZpbGw6IHVybCgnI2xpbmVhci1ncmFkaWVudC0xMycpOyBzdHJva2Utd2lkdGg6IDBweDsiIHBvaW50cz0iMTQ5LjI5MiAtMTEzLjEzNCAxMTEuMDMyIC05MS4yNDQgMTM1Ljg0MiAtMTM0LjA1NCAxODAuNjUyIC0xNTUuMDk0IDE0OS4yOTIgLTExMy4xMzQiIGNsYXNzPSJjbHMtMTciLz4mI3hhOyAgPHBvbHlnb24gc3R5bGU9ImZpbGw6IHJnYigyNTUsIDIyNCwgMTU5KTsgc3Ryb2tlLXdpZHRoOiAwcHg7IiBwb2ludHM9Ijg4LjMwMiAtMTI3LjU1NCAxMjMuMzkyIC0xNzQuNTM0IDIxOS41NzIgLTI1MC4yMTQgMzI3LjM5MiAtMjg3LjcwNCAzNTEuNTIyIC0yODkuOTk0IDIyOS4xODIgLTIxOC43MTQgODguMzAyIC0xMjcuNTU0IiBjbGFzcz0iY2xzLTg5Ii8+JiN4YTsgIDxwb2x5Z29uIHN0eWxlPSJmaWxsOiByZ2IoMjU1LCAwLCA4Myk7IHN0cm9rZS13aWR0aDogMHB4OyIgcG9pbnRzPSIyMDEuNDEyIC0xODIuMTg0IDIxMS45NjIgLTE5Ny4wODQgMjI1LjcxOCAtMjE2LjQ1NCA4OC40MjYgLTEyNy43NDMgMjAxLjQxMiAtMTgyLjE4NCIgY2xhc3M9ImNscy04NSIvPiYjeGE7ICA8cG9seWdvbiBzdHlsZT0iZmlsbDogcmdiKDI1NSwgMTA2LCAzOCk7IHN0cm9rZS13aWR0aDogMHB4OyIgcG9pbnRzPSIzMDYuMjIyIC0yNDYuNjU0IDIxMS45NjIgLTE5Ny4wODQgMjI1LjUyNCAtMjE2LjQ3IDM0NS41OTIgLTI4OS45OTQgMzUxLjUyMiAtMjg5Ljk5NCAzMDYuMjIyIC0yNDYuNjU0IiBjbGFzcz0iY2xzLTc1Ii8+JiN4YTsgIDxwb2x5Z29uIHN0eWxlPSJmaWxsOiB1cmwoJyNsaW5lYXItZ3JhZGllbnQtMTQnKTsgc3Ryb2tlLXdpZHRoOiAwcHg7IiBwb2ludHM9IjguOTMyIDMyLjcyNiA3NS42MzIgLTU3LjIyNCA5OC4zMzIgLTc5LjcxNCA3NS42MzIgLTM4LjQ4NCA4LjkzMiAzMi43MjYiIGNsYXNzPSJjbHMtMjYiLz4mI3hhOyAgPHBvbHlnb24gc3R5bGU9ImZpbGw6IHVybCgnI2xpbmVhci1ncmFkaWVudC0xNScpOyBzdHJva2Utd2lkdGg6IDBweDsiIHBvaW50cz0iMTE1LjY3MiAtNzEuNzQ0IDI1NS4wNzIgLTE3NC41MzQgMTgwLjY1MiAtMTU1LjA5NCAxMTQuMjExIC03MC4yODYiIGNsYXNzPSJjbHMtMjIiLz4mI3hhOyAgPHBvbHlnb24gc3R5bGU9ImZpbGw6IHJnYigyNTUsIDIxNywgMTUzKTsgc3Ryb2tlLXdpZHRoOiAwcHg7IiBwb2ludHM9IjIxMS45NjIgLTE5Ny4wODQgMTgwLjY1MiAtMTU1LjA5NCAzNDYuOTkyIC0yMjcuNDc0IDQxNS45MzIgLTI0NC40NDQgNDE5LjU2MiAtMjQ3LjczNCAzNzQuMjEyIC0yNDcuNzM0IDIxMS45NjIgLTE5Ny4wODQiIGNsYXNzPSJjbHMtODEiLz4mI3hhOyAgPHBvbHlnb24gc3R5bGU9ImZpbGw6IHJnYigyNTUsIDAsIDEwNSk7IHN0cm9rZS13aWR0aDogMHB4OyIgcG9pbnRzPSIyNTUuMDcyIC0xNzQuNTM0IDMxNy45NjIgLTE5MC4yNzQgNDE1LjkzMiAtMjQ0LjQ0NCAzNDYuOTkyIC0yMjcuNDc0IDE3OS4wMDIgLTE1NC4zMjQgMjU1LjA3MiAtMTc0LjUzNCIgY2xhc3M9ImNscy04NiIvPiYjeGE7ICA8cG9seWdvbiBzdHlsZT0iZmlsbDogcmdiKDI1MCwgMjQwLCAyMDIpOyBzdHJva2Utd2lkdGg6IDBweDsiIHBvaW50cz0iMjQ1LjI5MiAtMTY3LjMzNCAyOTMuNzcyIC0xNDMuMDk0IDI2My4zNzIgLTEyOS40NDQgMTQwLjIwMiAtODkuODM0IDI0NS4yOTIgLTE2Ny4zMzQiIGNsYXNzPSJjbHMtODIiLz4mI3hhOyAgPHBvbHlnb24gc3R5bGU9ImZpbGw6IHJnYigyNTUsIDIxNywgMTUzKTsgc3Ryb2tlLXdpZHRoOiAwcHg7IiBwb2ludHM9IjI1NS4wNzIgLTE3NC41MzQgMjQ1LjI5MiAtMTY3LjMzNCAyOTMuNzcyIC0xNDMuMDk0IDM1Ni40MDIgLTE2NS41OTQgMjk1LjgyMiAtMTg0LjczNCAyNTUuMDcyIC0xNzQuNTM0IiBjbGFzcz0iY2xzLTgxIi8+JiN4YTsgIDxwb2x5Z29uIHN0eWxlPSJmaWxsOiB1cmwoJyNsaW5lYXItZ3JhZGllbnQtMTYnKTsgc3Ryb2tlLXdpZHRoOiAwcHg7IiBwb2ludHM9IjMzMS44ODIgLTE5NC4zNzQgNDMxLjQwMiAtMjA1LjExNCA0OTEuNDAyIC0xOTguMjI0IDQ4My40OTIgLTE5NC4zNzQgNDM4LjQ5MiAtMTg4LjI5NCAzNTYuNDAyIC0xNjUuNTk0IDI5NS44MjIgLTE4NC43MzQgMzMxLjg4MiAtMTk0LjM3NCIgY2xhc3M9ImNscy0yMCIvPiYjeGE7ICA8cG9seWdvbiBzdHlsZT0iZmlsbDogdXJsKCcjbGluZWFyLWdyYWRpZW50LTE3Jyk7IHN0cm9rZS13aWR0aDogMHB4OyIgcG9pbnRzPSI0MzIuNzUyIC0xNjcuMzM0IDM1Ni40MDIgLTE2NS41OTQgNDM4LjQ5MiAtMTg4LjI5NCA0OTEuNDAyIC0xOTguMjI0IDQzMi43NTIgLTE2Ny4zMzQiIGNsYXNzPSJjbHMtMTkiLz4mI3hhOyAgPHBvbHlnb24gc3R5bGU9ImZpbGw6IHJnYigyNTUsIDExMSwgNDApOyBzdHJva2Utd2lkdGg6IDBweDsiIHBvaW50cz0iMjkzLjc3MiAtMTQzLjA5NCAzMDUuMzIxIC0xMzYuOCA0MzIuNzUyIC0xNjcuMzM0IDM1Ni40MDIgLTE2NS41OTQgMjkzLjc3MiAtMTQzLjA5NCIgY2xhc3M9ImNscy03MyIvPiYjeGE7ICA8cG9seWdvbiBzdHlsZT0iZmlsbDogdXJsKCcjbGluZWFyLWdyYWRpZW50LTE4Jyk7IHN0cm9rZS13aWR0aDogMHB4OyIgcG9pbnRzPSIxMy4xNjIgLTIuNDI0IC0yNS4xODggNjYuNjg2IC0yMi41NzggODAuNzE2IDguOTMyIDMyLjcyNiA3Ny45NTIgLTU5LjUyNCAxMy4xNjIgLTIuNDI0IiBjbGFzcz0iY2xzLTI1Ii8+JiN4YTsgIDxwb2x5Z29uIHN0eWxlPSJmaWxsOiByZ2IoNywgMjQsIDUzKTsgc3Ryb2tlLXdpZHRoOiAwcHg7IiBwb2ludHM9IjMzLjg4MiAzMi43MjYgLTIyLjU3OCA4MC43MTYgOC45MzIgMzIuNzI2IDc1LjYzMiAtMzguNDg0IDc5LjQ2MiAtMzQuMDg0IDUxLjg2MiAxNy4xNzYgMzMuODgyIDMyLjcyNiIgY2xhc3M9ImNscy01OSIvPiYjeGE7ICA8cG9seWdvbiBzdHlsZT0iZmlsbDogdXJsKCcjbGluZWFyLWdyYWRpZW50LTE5Jyk7IHN0cm9rZS13aWR0aDogMHB4OyIgcG9pbnRzPSIxNDkuMjkyIC0xMTMuMTM0IDExMC40NjIgLTY1LjcxNCA3OS40NjIgLTM0LjA4NCA3NS42MzIgLTM4LjQ4NCA5OC4zMzIgLTc5LjcxNCAxMTEuMDMyIC05MS4yNDQgMTQ5LjI5MiAtMTEzLjEzNCIgY2xhc3M9ImNscy0yMSIvPiYjeGE7ICA8cG9seWdvbiBzdHlsZT0iZmlsbDogcmdiKDIzOCwgNywgODIpOyBzdHJva2Utd2lkdGg6IDBweDsiIHBvaW50cz0iNTQuMDgyIDEzLjA0NiAxMjQuODgyIC02MS40MjQgMTQwLjIwMiAtODkuODM0IDExNS42NzIgLTcxLjc0NCA3OS40NjIgLTM0LjA4NCA1NC4wODIgMTMuMDQ2IiBjbGFzcz0iY2xzLTc5Ii8+JiN4YTsgIDxwb2x5Z29uIHN0eWxlPSJmaWxsOiB1cmwoJyNsaW5lYXItZ3JhZGllbnQtMjAnKTsgc3Ryb2tlLXdpZHRoOiAwcHg7IiBwb2ludHM9IjI2My4zNzIgLTEyOS40NDQgNTQuMDgyIDEzLjA0NiAxMjYuNDE1IC02NC4yODUgMTQwLjIwMiAtODkuODM0IDI2My4zNzIgLTEyOS40NDQiIGNsYXNzPSJjbHMtMjgiLz4mI3hhOyAgPHBvbHlnb24gc3R5bGU9ImZpbGw6IHVybCgnI2xpbmVhci1ncmFkaWVudC0yMScpOyBzdHJva2Utd2lkdGg6IDBweDsiIHBvaW50cz0iMjkzLjc3MiAtMTQzLjA5NCAzMDUuNDY4IC0xMzYuODQ3IDI2MS45NTIgLTEwMi44MjQgMTk1LjA4MiAtNzkuNzE0IDE5NS4wODIgLTgyLjk1NCAyNjMuMzcyIC0xMjkuNDQ0IDI5My43NzIgLTE0My4wOTQiIGNsYXNzPSJjbHMtMjQiLz4mI3hhOyAgPHBvbHlnb24gc3R5bGU9ImZpbGw6IHJnYig3LCAyNCwgNTMpOyBzdHJva2Utd2lkdGg6IDBweDsiIHBvaW50cz0iMzMuODgyIDMyLjcyNiA1NC4wODIgMTMuMDQ2IDE5NS4wODIgLTgyLjk1NCAxOTUuMDgyIC03Ni42ODQgNzAuNTAyIDEwLjU5NiAzMy44ODIgMzIuNzI2IiBjbGFzcz0iY2xzLTU5Ii8+JiN4YTsgIDxwb2x5Z29uIHN0eWxlPSJmaWxsOiB1cmwoJyNsaW5lYXItZ3JhZGllbnQtMjInKTsgc3Ryb2tlLXdpZHRoOiAwcHg7IiBwb2ludHM9IjI3MC40MzIgLTg1Ljg1NCAzMTAuMTUyIC0xMDUuNTM0IDI2MS45NTIgLTEwMi44MjQgMTk1LjA4MiAtNzkuNzE0IDcwLjUwMiAxMC41OTYgMjcwLjQzMiAtODUuODU0IiBjbGFzcz0iY2xzLTI3Ii8+JiN4YTsgIDxwb2x5Z29uIHN0eWxlPSJmaWxsOiByZ2IoMjU1LCAyMTcsIDE1Myk7IHN0cm9rZS13aWR0aDogMHB4OyIgcG9pbnRzPSI2OS40ODIgMTcuNTA2IDMzLjg4MiAzMi43MjYgNzAuNTAyIDEwLjU5NiAyNzAuNDMyIC04NS44NTQgMzEwLjE1MiAtODcuNjQ0IDQxMS40MjIgLTYzLjk2NCAzMzQuNTkyIC02MC4xMDQgMjQ0LjI3MiAtMzkuNzM0IDY5LjQ4MiAxNy41MDYiIGNsYXNzPSJjbHMtODEiLz4mI3hhOyAgPHBvbHlnb24gc3R5bGU9ImZpbGw6IHVybCgnI2xpbmVhci1ncmFkaWVudC0yMycpOyBzdHJva2Utd2lkdGg6IDBweDsiIHBvaW50cz0iMjY1LjIzMiAtMjIuMTg0IDI5OC41ODIgLTUxLjk4NCAyNDQuODEyIC00MS44MDQgNjkuNDgyIDE3LjUwNiAxNDkuMjkyIDAuNzA2IDI2NS4yMzIgLTIyLjE4NCIgY2xhc3M9ImNscy0yMyIvPiYjeGE7ICA8cG9seWdvbiBzdHlsZT0iZmlsbDogcmdiKDcsIDI0LCA1Myk7IHN0cm9rZS13aWR0aDogMHB4OyIgcG9pbnRzPSIyNjYuMzQyIC0yMy40OTQgMjQ4LjQ0MiAtMi40MjQgMTQ1LjMzMiA0LjMxNiAxNDYuMTMyIDEuMzU2IDI2Ni4zNDIgLTIzLjQ5NCIgY2xhc3M9ImNscy01OSIvPiYjeGE7ICA8cG9seWdvbiBzdHlsZT0iZmlsbDogdXJsKCcjbGluZWFyLWdyYWRpZW50LTI0Jyk7IHN0cm9rZS13aWR0aDogMHB4OyIgcG9pbnRzPSIxNDkuMjkyIDAuNzA2IDExMi40NjIgMzQuMjk2IDI0Ny44MDIgNjkuMDU2IDI5My43NzIgNzMuMjQ2IDE0OS4yOTIgMC43MDYiIGNsYXNzPSJjbHMtMzAiLz4mI3hhOyAgPHBvbHlnb24gc3R5bGU9ImZpbGw6IHVybCgnI2xpbmVhci1ncmFkaWVudC0yNScpOyBzdHJva2Utd2lkdGg6IDBweDsiIHBvaW50cz0iMzEwLjE1MiAxOC4xNjYgMjQ4LjQ0MiAtMi40MjQgMTQ5LjI5MiAwLjcwNiAxNzYuNTYyIDE4LjE2NiAzMTAuMTUyIDE4LjE2NiIgY2xhc3M9ImNscy0xNCIvPiYjeGE7ICA8cG9seWdvbiBzdHlsZT0iZmlsbDogdXJsKCcjbGluZWFyLWdyYWRpZW50LTI2Jyk7IHN0cm9rZS13aWR0aDogMHB4OyIgcG9pbnRzPSIzMTguNDUyIDMuNTg2IDI0OC40NDIgLTIuNDI0IDI2Ni4zNDIgLTIzLjQ5NCAzMTguNDUyIDMuNTg2IiBjbGFzcz0iY2xzLTMxIi8+JiN4YTsgIDxwb2x5Z29uIHN0eWxlPSJmaWxsOiByZ2IoMTEzLCA4MiwgMTUyKTsgc3Ryb2tlLXdpZHRoOiAwcHg7IiBwb2ludHM9IjMzMy40ODIgMjkuMTU2IDM5NS41MTIgODMuNzI2IDQ3MS42MDIgMTMxLjE1NiA0MTQuMDUyIDUwLjI2NiAzMTguNDUyIDMuNTg2IDI0OC40NDIgLTIuNDI0IDMzMy40ODIgMjkuMTU2IiBjbGFzcz0iY2xzLTU2Ii8+JiN4YTsgIDxwb2x5Z29uIHN0eWxlPSJmaWxsOiB1cmwoJyNsaW5lYXItZ3JhZGllbnQtMjcnKTsgc3Ryb2tlLXdpZHRoOiAwcHg7IiBwb2ludHM9IjIzNy41MTIgMTA5LjA0NiAyOTYuODYyIDEzMC4yMDYgMjQ3LjgwMiA2OS4wNTYgMTcwLjIzNCA0OS4xNjMgMjM3LjUxMiAxMDkuMDQ2IiBjbGFzcz0iY2xzLTI5Ii8+JiN4YTsgIDxwb2x5Z29uIHN0eWxlPSJmaWxsOiByZ2IoMTg4LCAwLCA5Myk7IHN0cm9rZS13aWR0aDogMHB4OyIgcG9pbnRzPSIyNjYuMzQyIC0yMy40OTQgMzMxLjkzMiAtNTEuOTg0IDMzNC41OTIgLTYwLjEwNCAyOTguNTgyIC01MS45ODQgMjY2LjM0MiAtMjMuNDk0IiBjbGFzcz0iY2xzLTY5Ii8+JiN4YTsgIDxwb2x5Z29uIHN0eWxlPSJmaWxsOiByZ2IoMTg4LCAwLCA5Myk7IHN0cm9rZS13aWR0aDogMHB4OyIgcG9pbnRzPSI0NTkuMTcyIC01NS4xOTQgNDM4Ljc3NCAtNjUuNDM1IDMzNC41OTIgLTYwLjEwNCAzMzAuMzMyIC00OS4zMDQgNDU5LjE3MiAtNTUuMTk0IiBjbGFzcz0iY2xzLTY5Ii8+JiN4YTsgIDxwb2x5Z29uIHN0eWxlPSJmaWxsOiByZ2IoMjU1LCAyMDEsIDE0MSk7IHN0cm9rZS13aWR0aDogMHB4OyIgcG9pbnRzPSIzMDAuODUyIC0xMzQuMTk0IDI2MS45NTIgLTEwMi44MjQgMzQxLjM1MiAtMTAwLjEzNCA0MzguMjkyIC0xMDUuNTM0IDMwMC44NTIgLTEzNC4xOTQiIGNsYXNzPSJjbHMtNzgiLz4mI3hhOyAgPHBvbHlnb24gc3R5bGU9ImZpbGw6IHJnYigyNTAsIDI0MCwgMjAyKTsgc3Ryb2tlLXdpZHRoOiAwcHg7IiBwb2ludHM9IjUzOC45NzIgLTEzNC4wNTQgNDkxLjQwMiAtMTQ4LjE5NCA0MTUuOTMyIC0xNTcuMjA0IDMwOS4xNTIgLTEzOC45NTQgMzAwLjg1MiAtMTM0LjE5NCAzNTEuNTIyIC0xMjMuMTQ0IDUzOC45NzIgLTEzNC4wNTQiIGNsYXNzPSJjbHMtODIiLz4mI3hhOyAgPHBvbHlnb24gc3R5bGU9ImZpbGw6IHVybCgnI2xpbmVhci1ncmFkaWVudC0yOCcpOyBzdHJva2Utd2lkdGg6IDBweDsiIHBvaW50cz0iNDM4LjI5MiAtMTA1LjUzNCA1MzguOTcyIC0xMzQuMDU0IDM1MS41MjIgLTEyMy4xNDQgNDM4LjI5MiAtMTA1LjUzNCIgY2xhc3M9ImNscy0xMyIvPiYjeGE7ICA8cG9seWdvbiBzdHlsZT0iZmlsbDogcmdiKDI1MCwgMjQwLCAyMDIpOyBzdHJva2Utd2lkdGg6IDBweDsiIHBvaW50cz0iMzAxLjk0MiAtMTAxLjQ3NCAyNzAuNDMyIC04NS44NTQgMzEwLjE1MiAtODcuNjQ0IDQxMS40MjIgLTYzLjk2NCA0MjYuNzgyIC02NC40MjQgMzQ2LjM0MiAtMTAxLjQ3NCAzMDEuOTQyIC0xMDEuNDc0IiBjbGFzcz0iY2xzLTgyIi8+JiN4YTsgIDxwb2x5Z29uIHN0eWxlPSJmaWxsOiByZ2IoMjU1LCAwLCA4Myk7IHN0cm9rZS13aWR0aDogMHB4OyIgcG9pbnRzPSI0MzguMjkyIC0xMDUuNTM0IDUxOC40OTIgLTYyLjEwNCA0MjYuNzgyIC02NC40MjQgMzQ2LjM0MiAtMTAxLjQ3NCA0MzguMjkyIC0xMDUuNTM0IiBjbGFzcz0iY2xzLTg1Ii8+JiN4YTsgIDxwYXRoIHN0eWxlPSJmaWxsOiB1cmwoJyNsaW5lYXItZ3JhZGllbnQtMjknKTsgc3Ryb2tlLXdpZHRoOiAwcHg7IiBkPSJNIDU3OS4yMzIgLTYyLjEwNCBMIDUxOC40OTIgLTYyLjEwNCBMIDQzOC4yOTIgLTEwNS41MzQgTCA0NTQuNTMyIC0xMDUuNTM0IEMgNDU0LjUzMiAtMTA1LjUzNCA1MzUuMjgyIC04Ny4wNTQgNTQxLjgxMiAtODUuNDM0IEMgNTQ4LjM0MiAtODMuODE0IDU3OS4yMjIgLTYyLjEwNCA1NzkuMjIyIC02Mi4xMDQgTCA1NzkuMjMyIC02Mi4xMDQgWiIgY2xhc3M9ImNscy00Ii8+JiN4YTsgIDxwb2x5Z29uIHN0eWxlPSJmaWxsOiByZ2IoMjU1LCAxNzYsIDI5KTsgc3Ryb2tlLXdpZHRoOiAwcHg7IiBwb2ludHM9IjU0Ni40NzIgLTQxLjgwNCA1NDEuNDUyIC0yNy40NjQgNDU5LjE3MiAtNTUuMTk0IDQzOS41MzIgLTY0LjQyNCA1MTguNDkyIC02Mi4xMDQgNTQ2LjQ3MiAtNDEuODA0IiBjbGFzcz0iY2xzLTgwIi8+JiN4YTsgIDxwYXRoIHN0eWxlPSJmaWxsOiB1cmwoJyNsaW5lYXItZ3JhZGllbnQtMzAnKTsgc3Ryb2tlLXdpZHRoOiAwcHg7IiBkPSJNIDM4Ny40NDIgLTQ1Ljk0NCBMIDYwNy41NzIgMTEzLjQyNiBDIDYwNy41NzIgMTEzLjQyNiA2MTAuMjUyIDEwOS40NzYgNjA3LjU3MiAxMDIuMTI2IEMgNjA0Ljg5MiA5NC43NzYgNTIxLjM2MiAtNS40MjQgNTIxLjM2MiAtNS40MjQgTCAzODcuNDQyIC00NS45NDQgWiIgY2xhc3M9ImNscy02Ii8+JiN4YTsgIDxwb2x5Z29uIHN0eWxlPSJmaWxsOiB1cmwoJyNsaW5lYXItZ3JhZGllbnQtMzEnKTsgc3Ryb2tlLXdpZHRoOiAwcHg7IiBwb2ludHM9IjU0MS40NTIgLTI3LjQ2NCA1MjEuMzYyIC01LjQyNCA2MDQuMjIyIDE4LjE2NiA1NDEuNDUyIC0yNy40NjQiIGNsYXNzPSJjbHMtNyIvPiYjeGE7ICA8cG9seWdvbiBzdHlsZT0iZmlsbDogcmdiKDI1NSwgMjAxLCAxNDEpOyBzdHJva2Utd2lkdGg6IDBweDsiIHBvaW50cz0iMzMxLjkzMiAtNTEuOTg0IDI2Ni4zNDIgLTIzLjQ5NCAyOTIuNTEyIC0xNy4yNDQgNDE2Ljc1MiAtNTMuMjU0IDMzMS45MzIgLTUxLjk4NCIgY2xhc3M9ImNscy03OCIvPiYjeGE7ICA8cG9seWdvbiBzdHlsZT0iZmlsbDogcmdiKDI1NSwgMjAxLCAxNDEpOyBzdHJva2Utd2lkdGg6IDBweDsiIHBvaW50cz0iNTQxLjQ1MiAtMjcuNDY0IDUyMS4zNjIgLTUuNDI0IDUyMS4zNjIgLTUuNDI0IDM4Ny40NDIgLTQ1Ljk0NCA0MTYuNzUyIC01My4yNTQgNDU1LjYyMiAtNTYuODY0IDU0MS40NTIgLTI3LjQ2NCIgY2xhc3M9ImNscy03OCIvPiYjeGE7ICA8cG9seWdvbiBzdHlsZT0iZmlsbDogdXJsKCcjbGluZWFyLWdyYWRpZW50LTMyJyk7IHN0cm9rZS13aWR0aDogMHB4OyIgcG9pbnRzPSI0MDYuNjkyIDAuNzA2IDM4Ny40NDIgLTQ1Ljk0NCAyOTIuNTEyIC0xNy4yNDQgNDA2LjY5MiAwLjcwNiIgY2xhc3M9ImNscy01Ii8+JiN4YTsgIDxwb2x5Z29uIHN0eWxlPSJmaWxsOiB1cmwoJyNsaW5lYXItZ3JhZGllbnQtMzMnKTsgc3Ryb2tlLXdpZHRoOiAwcHg7IiBwb2ludHM9IjUxMC42NzIgNDMuMjY2IDUzMy4wODIgODIuNDU2IDQwNi42OTIgMC43MDYgMzg3LjQ0MiAtNDUuOTQ0IDUxMC42NzIgNDMuMjY2IiBjbGFzcz0iY2xzLTMiLz4mI3hhOyAgPHBvbHlnb24gc3R5bGU9ImZpbGw6IHVybCgnI2xpbmVhci1ncmFkaWVudC0zNCcpOyBzdHJva2Utd2lkdGg6IDBweDsiIHBvaW50cz0iMTc2LjU2MiAxOC4xNjYgMjEwLjg0MiAxOC4yNTYgMjkzLjc3MiA3My4yNDYgMTc2LjU2MiAxOC4xNjYiIGNsYXNzPSJjbHMtMTAiLz4mI3hhOyAgPHBvbHlnb24gc3R5bGU9ImZpbGw6IHVybCgnI2xpbmVhci1ncmFkaWVudC0zNScpOyBzdHJva2Utd2lkdGg6IDBweDsiIHBvaW50cz0iMzIzLjQyMiA0Ny4zNTYgMjEwLjg0MiAxOC4yNTYgMjkzLjc3MiA3My4yNDYgMzMwLjMzMiAxMDQuNjM2IDQzMi45ODIgMTk5LjY4NiAzMjMuNDIyIDQ3LjM1NiIgY2xhc3M9ImNscy0xMiIvPiYjeGE7ICA8cG9seWdvbiBzdHlsZT0iZmlsbDogdXJsKCcjbGluZWFyLWdyYWRpZW50LTM2Jyk7IHN0cm9rZS13aWR0aDogMHB4OyIgcG9pbnRzPSIzMDMuODkyIDE4LjE2NiAzOTQuNjMyIDgzLjI3NiAzMjMuNDIyIDQ3LjM1NiAyMTAuODQyIDE4LjI1NiAzMDMuODkyIDE4LjE2NiIgY2xhc3M9ImNscy04Ii8+JiN4YTsgIDxwb2x5Z29uIHN0eWxlPSJmaWxsOiB1cmwoJyNsaW5lYXItZ3JhZGllbnQtMzcnKTsgc3Ryb2tlLXdpZHRoOiAwcHg7IiBwb2ludHM9IjMzMy40ODIgMjkuMTU2IDMzMi41MTIgNDAuNDA2IDMwMy44OTIgMTguMTY2IDMzMy40ODIgMjkuMTU2IiBjbGFzcz0iY2xzLTExIi8+JiN4YTsgIDxwb2x5Z29uIHN0eWxlPSJmaWxsOiByZ2IoNywgMjQsIDUzKTsgc3Ryb2tlLXdpZHRoOiAwcHg7IiBwb2ludHM9IjM5NS41MTIgODMuNzI2IDM3MS41NDIgNzAuNzI2IDMzMi41MTIgNDAuNDA2IDMzMy40ODIgMjkuMTU2IDM5NS41MTIgODMuNzI2IiBjbGFzcz0iY2xzLTU5Ii8+JiN4YTsgIDxwb2x5Z29uIHN0eWxlPSJmaWxsOiB1cmwoJyNsaW5lYXItZ3JhZGllbnQtMzgnKTsgc3Ryb2tlLXdpZHRoOiAwcHg7IiBwb2ludHM9IjI2Ni4zNDIgLTIzLjQ5NCA0MDYuNjkyIDAuNzA2IDQ1Mi44MTIgNzUuODI2IDI2Ni4zNDIgLTIzLjQ5NCIgY2xhc3M9ImNscy0yIi8+JiN4YTsgIDxwb2x5Z29uIHN0eWxlPSJmaWxsOiByZ2IoMjU1LCA5NiwgNDEpOyBzdHJva2Utd2lkdGg6IDBweDsiIHBvaW50cz0iMzIzLjQyMiA0Ny4zNTYgNDMyLjk4MiAxOTkuNjg2IDM5NS41MTIgODMuNzI2IDMyMy40MjIgNDcuMzU2IiBjbGFzcz0iY2xzLTc0Ii8+JiN4YTsgIDxwb2x5Z29uIHN0eWxlPSJmaWxsOiB1cmwoJyNsaW5lYXItZ3JhZGllbnQtMzknKTsgc3Ryb2tlLXdpZHRoOiAwcHg7IiBwb2ludHM9IjQ4Ny41NzIgMjQxLjM4NiAzOTUuNTEyIDgzLjcyNiA0ODEuNTgyIDEzNS43MDYgNDg3LjU3MiAyNDEuMzg2IiBjbGFzcz0iY2xzLTkiLz4mI3hhOyAgPHBvbHlnb24gc3R5bGU9ImZpbGw6IHVybCgnI2xpbmVhci1ncmFkaWVudC00MCcpOyBzdHJva2Utd2lkdGg6IDBweDsiIHBvaW50cz0iMzY0LjAxMiAxNDEuMTE2IDQwNy40MzIgMjM5LjgxNiA0MzIuOTgyIDE5OS42ODYgMzcyLjk4MiAxMTYuMjY2IDM2NC4wMTIgMTQxLjExNiIgY2xhc3M9ImNscy00MCIvPiYjeGE7ICA8cG9seWdvbiBzdHlsZT0iZmlsbDogdXJsKCcjbGluZWFyLWdyYWRpZW50LTQxJyk7IHN0cm9rZS13aWR0aDogMHB4OyIgcG9pbnRzPSIzNDIuNzcyIDIyNi4yODYgMzc4LjIwMiAyNzguMjg2IDM0OC42MTIgMzcwLjg0NiAzNDAuODQyIDM3OC4wNDYgMzQyLjc3MiAyMjYuMjg2IiBjbGFzcz0iY2xzLTQxIi8+JiN4YTsgIDxwb2x5Z29uIHN0eWxlPSJmaWxsOiByZ2IoNTEsIDQwLCAxMTYpOyBzdHJva2Utd2lkdGg6IDBweDsiIHBvaW50cz0iMjk2LjIzMiAxMTQuNjc2IDMyMS40MTIgMjg4LjEyNiAyODUuNjEyIDI3NC4xMTYgMjk2LjIzMiAxMTQuNjc2IiBjbGFzcz0iY2xzLTY4Ii8+JiN4YTsgIDxwb2x5Z29uIHN0eWxlPSJmaWxsOiByZ2IoMCwgNjksIDE3OCk7IHN0cm9rZS13aWR0aDogMHB4OyIgcG9pbnRzPSIyMzcuNTEyIDEwOS4wNDYgMjY2LjM0MiAxNDcuMDg2IDI1Ni42ODIgMTczLjMyNiAyMzcuNTEyIDEwOS4wNDYiIGNsYXNzPSJjbHMtOTMiLz4mI3hhOyAgPHBvbHlnb24gc3R5bGU9ImZpbGw6IHJnYigyNTAsIDAsIDk3KTsgc3Ryb2tlLXdpZHRoOiAwcHg7IiBwb2ludHM9IjUzMy4wODIgODIuNDU2IDUyMi44MDIgMTQxLjExNiA1NTkuODkyIDExNi44NTYgNTMzLjA4MiA4Mi40NTYiIGNsYXNzPSJjbHMtNTUiLz4mI3hhOyAgPHBvbHlnb24gc3R5bGU9ImZpbGw6IHJnYigyNTUsIDI3LCA3OCk7IHN0cm9rZS13aWR0aDogMHB4OyIgcG9pbnRzPSI0MDYuNjkyIDAuNzA2IDQ1Mi44MTIgNzUuODI2IDUyMi44MDIgMTQxLjExNiA1MzMuMDgyIDgyLjQ1NiA0MDYuNjkyIDAuNzA2IiBjbGFzcz0iY2xzLTgzIi8+JiN4YTsgIDxwb2x5Z29uIHN0eWxlPSJmaWxsOiByZ2IoNywgMjQsIDUzKTsgc3Ryb2tlLXdpZHRoOiAwcHg7IiBwb2ludHM9IjQxOS42ODIgNTguMTc2IDQ1Mi44MTIgNzUuODI2IDQ4MC4xOTIgMTM3LjE3NiA0NzEuNjAyIDEzMS4xNTYgNDE5LjY4MiA1OC4xNzYiIGNsYXNzPSJjbHMtNTkiLz4mI3hhOyAgPHBvbHlnb24gc3R5bGU9ImZpbGw6IHJnYigyNTUsIDIxNywgMTUzKTsgc3Ryb2tlLXdpZHRoOiAwcHg7IiBwb2ludHM9IjU0Ni40NzIgLTQxLjgwNCA2MDQuMjIyIDE4LjE2NiA1NDEuNDUyIC0yNy40NjQgNTQ2LjQ3MiAtNDEuODA0IiBjbGFzcz0iY2xzLTgxIi8+JiN4YTsgIDxwb2x5Z29uIHN0eWxlPSJmaWxsOiByZ2IoMjI3LCAwLCAxMDMpOyBzdHJva2Utd2lkdGg6IDBweDsiIHBvaW50cz0iNTEwLjY3MiA0My4yNjYgNTMzLjA4MiA4Mi40NTYgNjA3LjU3MiAxMTMuNDI2IDUxMC42NzIgNDMuMjY2IiBjbGFzcz0iY2xzLTY0Ii8+JiN4YTsgIDxwYXRoIHN0eWxlPSJmaWxsOiB1cmwoJyNsaW5lYXItZ3JhZGllbnQtNDInKTsgc3Ryb2tlLXdpZHRoOiAwcHg7IiBkPSJNIDU1OS44OTIgMTE2Ljg1NiBMIDU3MC4zNzIgMTM3LjE3NiBDIDU3MC4zNzIgMTM3LjE3NiA1OTYuNDEyIDE3MS45MDYgNTk1LjQwMiAxNzYuNTM2IEMgNTk0LjM5MiAxODEuMTY2IDUyMi43OTIgMTQxLjEwNiA1MjIuNzkyIDE0MS4xMDYgTCA1NTkuODgyIDExNi44NDYgTCA1NTkuODkyIDExNi44NTYgWiIgY2xhc3M9ImNscy0zOCIvPiYjeGE7ICA8cG9seWdvbiBzdHlsZT0iZmlsbDogcmdiKDI1NSwgMjAxLCAxNDEpOyBzdHJva2Utd2lkdGg6IDBweDsiIHBvaW50cz0iNDUyLjgxMiA3NS44MjYgNDgwLjE5MiAxMzcuMTc2IDUyMi44MDIgMTQxLjExNiA0NTIuODEyIDc1LjgyNiIgY2xhc3M9ImNscy03OCIvPiYjeGE7ICA8cG9seWdvbiBzdHlsZT0iZmlsbDogcmdiKDIyNywgMCwgMTAzKTsgc3Ryb2tlLXdpZHRoOiAwcHg7IiBwb2ludHM9IjUxMi43MzIgMTk1LjY5NiA0NzEuNjAyIDEzMS4xNTYgNTIyLjgwMiAxNDEuMTE2IDUxMi43MzIgMTk1LjY5NiIgY2xhc3M9ImNscy02NCIvPiYjeGE7ICA8cG9seWdvbiBzdHlsZT0iZmlsbDogcmdiKDcsIDI0LCA1Myk7IHN0cm9rZS13aWR0aDogMHB4OyIgcG9pbnRzPSIyNTYuNjgyIDE3My4zMjYgMjg1LjY2MiAyNzMuMDA2IDI5My43NzIgMTk1LjY5NiAyNjYuMzQyIDE0Ny4wODYgMjU2LjY4MiAxNzMuMzI2IiBjbGFzcz0iY2xzLTU5Ii8+JiN4YTsgIDxwb2x5Z29uIHN0eWxlPSJmaWxsOiB1cmwoJyNsaW5lYXItZ3JhZGllbnQtNDMnKTsgc3Ryb2tlLXdpZHRoOiAwcHg7IiBwb2ludHM9IjI5Ni44NjIgMTI3LjQ2NiAzNDIuNzcyIDIyNi4yODYgMzIxLjQxMiAyODguMTI2IDI5Ni44NjIgMTI3LjQ2NiIgY2xhc3M9ImNscy0zOSIvPiYjeGE7ICA8cG9seWdvbiBzdHlsZT0iZmlsbDogdXJsKCcjbGluZWFyLWdyYWRpZW50LTQ0Jyk7IHN0cm9rZS13aWR0aDogMHB4OyIgcG9pbnRzPSIzNjAuMDIyIDE3MC44NzYgMzc4LjIwMiAyNzguMjg2IDM5Ny45MjIgMzI0LjY1OCA0MDcuNDMyIDIzOS44MTYgMzU3LjkxNyAxNjAuMjI4IiBjbGFzcz0iY2xzLTM0Ii8+JiN4YTsgIDxwb2x5Z29uIHN0eWxlPSJmaWxsOiB1cmwoJyNsaW5lYXItZ3JhZGllbnQtNDUnKTsgc3Ryb2tlLXdpZHRoOiAwcHg7IiBwb2ludHM9IjMxOS44MjIgMTAwLjY0NiAyOTYuODYyIDEzMC4yMDYgMzk0LjYzMiAyMjEuMjA2IDMxOS44MjIgMTAwLjY0NiIgY2xhc3M9ImNscy0zMiIvPiYjeGE7ICA8cG9seWdvbiBzdHlsZT0iZmlsbDogdXJsKCcjbGluZWFyLWdyYWRpZW50LTQ2Jyk7IHN0cm9rZS13aWR0aDogMHB4OyIgcG9pbnRzPSIyNDcuODAyIDY5LjA1NiAyOTYuODYyIDEzMC4yMDYgMzE5LjgyMiAxMDAuNjQ2IDI0Ny44MDIgNjkuMDU2IiBjbGFzcz0iY2xzLTMzIi8+JiN4YTsgIDxwb2x5Z29uIHN0eWxlPSJmaWxsOiByZ2IoNywgMjQsIDUzKTsgc3Ryb2tlLXdpZHRoOiAwcHg7IiBwb2ludHM9IjQwNy42NzUgMjQxLjMwOSAzMjAuMDA5IDEwMS40NTYgMzY1Ljg4NSAxMjIuMDk3IDQwNy42MzggMjQwLjk5MSIgY2xhc3M9ImNscy01OSIvPiYjeGE7ICA8cG9seWdvbiBzdHlsZT0iZmlsbDogcmdiKDI1MCwgMCwgOTcpOyBzdHJva2Utd2lkdGg6IDBweDsiIHBvaW50cz0iNDMyLjk4MiAxOTkuNjg2IDQwNy40MzIgMjM5LjgxNiA0NDguODUyIDMwNi4wMzYgNDMyLjk4MiAxOTkuNjg2IiBjbGFzcz0iY2xzLTU1Ii8+JiN4YTsgIDxwYXRoIGQ9Ik0gMzc4LjIwMiAyNzguMjg2IEMgMzc4LjIwMiAyNzguMjg2IDM5OC4yMjUgMzI1LjQ2NCAzOTguMTU1IDMyNS4wNDMgTCAzNDguNjEyIDM3MC44NDYgTCAzNzguMjAyIDI3OC4yODYgWiIgc3R5bGU9ImZpbGw6IHVybCgnI2xpbmVhci1ncmFkaWVudC00NycpOyBzdHJva2Utd2lkdGg6IDBweDsiIGNsYXNzPSJjbHMtMzciLz4mI3hhOyAgPHBvbHlnb24gc3R5bGU9ImZpbGw6IHVybCgnI2xpbmVhci1ncmFkaWVudC00OCcpOyBzdHJva2Utd2lkdGg6IDBweDsiIHBvaW50cz0iMzYwLjAyMiAxNzAuODc2IDM0Mi43NzIgMjI2LjI4NiAyOTUuMjY5IDEyOS4wNTkgMzYwLjAyMiAxNzAuODc2IiBjbGFzcz0iY2xzLTM1Ii8+JiN4YTsgIDxwb2x5Z29uIHN0eWxlPSJmaWxsOiByZ2IoMjU1LCAxMjMsIDk3KTsgc3Ryb2tlLXdpZHRoOiAwcHg7IiBwb2ludHM9IjM3OC4yMDIgMjc4LjI4NiAzNjAuMDIyIDE3MC44NzYgMzQyLjc3MiAyMjYuMjg2IDM3OC4yMDIgMjc4LjI4NiIgY2xhc3M9ImNscy03MiIvPiYjeGE7ICA8cG9seWdvbiBzdHlsZT0iZmlsbDogcmdiKDI1NSwgMjcsIDc4KTsgc3Ryb2tlLXdpZHRoOiAwcHg7IiBwb2ludHM9IjM5NS41MTIgODMuNzI2IDQ4Ny41NzIgMjQxLjM4NiA0MzIuOTgyIDE5OS42ODYgMzk1LjUxMiA4My43MjYiIGNsYXNzPSJjbHMtODMiLz4mI3hhOyAgPHBvbHlnb24gc3R5bGU9ImZpbGw6IHVybCgnI2xpbmVhci1ncmFkaWVudC00OScpOyBzdHJva2Utd2lkdGg6IDBweDsiIHBvaW50cz0iNDcxLjYwMiAxMzEuMTU2IDQ4Ny42MDkgMjQxLjM4NiA1MTIuNzExIDE5NS42MyA0NzEuNjAyIDEzMS4xNTYiIGNsYXNzPSJjbHMtMzYiLz4mI3hhOyAgPHBhdGggc3R5bGU9ImZpbGw6IHVybCgnI2xpbmVhci1ncmFkaWVudC01MCcpOyBzdHJva2Utd2lkdGg6IDBweDsiIGQ9Ik0gNTM2LjU0MiAzMDIuMTY2IEMgNTQwLjU4MiAzMDYuNTg2IDU0MS4zNDIgMzAyLjE2NiA1NDEuMzQyIDMwMi4xNjYgTCA1MTIuODExIDE5NS4zODMgTCA0ODcuNTYyIDI0MS4zNzYgQyA0ODcuNTYyIDI0MS4zNzYgNTMyLjQ5MiAyOTcuNzM2IDUzNi41MzIgMzAyLjE1NiBMIDUzNi41NDIgMzAyLjE2NiBaIiBjbGFzcz0iY2xzLTQ1Ii8+JiN4YTsgIDxwb2x5Z29uIHN0eWxlPSJmaWxsOiByZ2IoMTEzLCA4MiwgMTUyKTsgc3Ryb2tlLXdpZHRoOiAwcHg7IiBwb2ludHM9IjIzNy41MTIgMTA5LjA0NiAyOTMuNzcyIDE5NS42OTYgMjk2Ljg2MiAxMzAuMjA2IDIzNy41MTIgMTA5LjA0NiIgY2xhc3M9ImNscy01NiIvPiYjeGE7ICA8cG9seWdvbiBzdHlsZT0iZmlsbDogdXJsKCcjbGluZWFyLWdyYWRpZW50LTUxJyk7IHN0cm9rZS13aWR0aDogMHB4OyIgcG9pbnRzPSIyOTYuODYyIDcxLjE4NiAzNjkuMTAyIDEyMy41MTYgMjQ3LjgwMiA2OS4wNTYgMjk2Ljg2MiA3MS4xODYiIGNsYXNzPSJjbHMtNDMiLz4mI3hhOyAgPHBvbHlnb24gc3R5bGU9ImZpbGw6IHJnYigxMCwgMjQsIDM3KTsgc3Ryb2tlLXdpZHRoOiAwcHg7IiBwb2ludHM9IjIzNy41MTIgMTA5LjA0NiAyMjEuOTAyIDIxNC4wNzYgMTM4LjY2MiAxMTcuNjI2IDIzNy41MTIgMTA5LjA0NiIgY2xhc3M9ImNscy02MCIvPiYjeGE7ICA8cG9seWdvbiBzdHlsZT0iZmlsbDogdXJsKCcjbGluZWFyLWdyYWRpZW50LTUyJyk7IHN0cm9rZS13aWR0aDogMHB4OyIgcG9pbnRzPSItNjYuNjI4IDEyMC4wMzYgLTgyLjI3OCAtMzIuMzU0IC02MS42MzggLTk2LjE1NCAtNTAuNjI4IC04LjY4NCAtNjYuNjI4IDEyMC4wMzYiIGNsYXNzPSJjbHMtNDQiLz4mI3hhOyAgPHBvbHlnb24gc3R5bGU9ImZpbGw6IHJnYigyNTUsIDExOSwgMCk7IHN0cm9rZS13aWR0aDogMHB4OyIgcG9pbnRzPSItMTAyLjg1OCAtMjQuMTY0IC04Mi4wMTggLTI5Ljg0NCAtNDIuODY4IC0xNTcuMjA0IC0xMDIuODU4IC0yNC4xNjQiIGNsYXNzPSJjbHMtNzYiLz4mI3hhOyAgPHBvbHlnb24gc3R5bGU9ImZpbGw6IHVybCgnI2xpbmVhci1ncmFkaWVudC01MycpOyBzdHJva2Utd2lkdGg6IDBweDsiIHBvaW50cz0iMzMuODgyIDMyLjcyNiAxMTIuNDYyIDM0LjI5NiAxNDkuMjkyIDAuNzA2IDY5LjQ4MiAxNy41MDYgMzMuODgyIDMyLjcyNiIgY2xhc3M9ImNscy00MiIvPiYjeGE7ICA8cG9seWdvbiBzdHlsZT0iZmlsbDogcmdiKDI1NSwgMTM1LCAxMjQpOyBzdHJva2Utd2lkdGg6IDBweDsiIHBvaW50cz0iLTYuMjY4IC0xNzMuMTE0IDI3LjI4MSAtMjE2LjE2NiAxMC43MzIgLTI1NS40MDQgLTYuMjY4IC0xNzMuMTE0IiBjbGFzcz0iY2xzLTc3Ii8+JiN4YTsgIDxwb2x5Z29uIHN0eWxlPSJmaWxsOiByZ2IoMjU1LCAxNjYsIDApOyBzdHJva2Utd2lkdGg6IDBweDsiIHBvaW50cz0iMTcuNzcyIC0xNDAuMTc0IDguOTMyIC03Ny4yODQgNjkuNjcyIC0yMDEuNDE0IDE3Ljc3MiAtMTQwLjE3NCIgY2xhc3M9ImNscy04NCIvPiYjeGE7ICA8cG9seWdvbiBzdHlsZT0iZmlsbDogcmdiKDEzMiwgMTgzLCAyNTUpOyBzdHJva2Utd2lkdGg6IDBweDsiIHBvaW50cz0iMzYuNDQyIDg2LjExNiA0NC44NjIgMTI1Ljc1NiAtMjIuNTc4IDEyNS43NTYgMzYuNDQyIDg2LjExNiIgY2xhc3M9ImNscy02NiIvPiYjeGE7ICA8Y2lyY2xlIHN0eWxlPSJmaWxsOiByZ2IoMCwgMjgsIDc0KTsgc3Ryb2tlLXdpZHRoOiAwcHg7IiByPSIxOC40MyIgY3k9IjkzLjE0NiIgY3g9IjE4LjAxMiIgY2xhc3M9ImNscy05NiIvPiYjeGE7ICA8cG9seWdvbiBzdHlsZT0iZmlsbDogcmdiKDAsIDQ5LCAxMTYpOyBzdHJva2Utd2lkdGg6IDBweDsiIHBvaW50cz0iMjg1LjYxMiAyNzIuNDA2IDE5NC44ODIgMzYxLjAwNiAxMTYuOTIyIDQ0My44NTYgMjUzLjA3MiAzNTYuOTM2IDI4NS4xMDIgMjc0LjQyNiAyODUuNjEyIDI3Mi40MDYiIGNsYXNzPSJjbHMtOTAiLz4mI3hhOyAgPHBvbHlnb24gc3R5bGU9ImZpbGw6IHJnYig1MSwgNDAsIDExNik7IHN0cm9rZS13aWR0aDogMHB4OyIgcG9pbnRzPSIyMTcuNjkyIDQxNi45ODYgMjkzLjc3MiAzNjQuMjc2IDI4NS42MTIgMjcyLjQwNiAyODUuMTYyIDI3NC4wNzYgMjE3LjY5MiA0MTYuOTg2IiBjbGFzcz0iY2xzLTY4Ii8+JiN4YTsgIDxwb2x5Z29uIHN0eWxlPSJmaWxsOiByZ2IoMjU1LCAxMjMsIDk3KTsgc3Ryb2tlLXdpZHRoOiAwcHg7IiBwb2ludHM9IjMzNC41OTIgLTYwLjEwNCAyNzAuNDMyIC04NS44NTQgMzEwLjE1MiAtODcuNjQ0IDQxMS40MjIgLTYzLjk2NCAzMzQuNTkyIC02MC4xMDQiIGNsYXNzPSJjbHMtNzIiLz4mI3hhOyAgPHBvbHlnb24gc3R5bGU9ImZpbGw6IHJnYigyNTUsIDE2NiwgMCk7IHN0cm9rZS13aWR0aDogMHB4OyIgcG9pbnRzPSIyNDQuODEyIC00MS44MDQgMjcwLjQzMiAtODUuODU0IDMzNC41OTIgLTYwLjEwNCAyNDQuODEyIC00MS44MDQiIGNsYXNzPSJjbHMtODQiLz4mI3hhOyAgPHBvbHlnb24gc3R5bGU9ImZpbGw6IHVybCgnI2xpbmVhci1ncmFkaWVudC01NCcpOyBzdHJva2Utd2lkdGg6IDBweDsiIHBvaW50cz0iMTQ4LjIwMiAtMTAuODM0IDE3MS40OTIgLTM4LjExNCAyNzAuNDMyIC04NS44NTQgMjQ0LjgxMiAtNDEuODA0IDE0OC4yMDIgLTEwLjgzNCIgY2xhc3M9ImNscy00NiIvPiYjeGE7ICA8Y2lyY2xlIHN0eWxlPSJmaWxsOiByZ2IoMjUyLCAyNTIsIDI1Mik7IHN0cm9rZS13aWR0aDogMHB4OyIgcj0iMy43MiIgY3k9IjgzLjcyNiIgY3g9IjE2LjA1MiIgY2xhc3M9ImNscy04OCIvPiYjeGE7PC9zdmc+;imageBorder=none;" parent="P-K8g6husN1xDYQWRV40-6" vertex="1">
          <mxGeometry x="4.746666666666668" y="4.88" width="30.506666666666664" height="30.24" as="geometry" />
        </mxCell>
        <mxCell id="P-K8g6husN1xDYQWRV40-8" value="" style="rounded=1;whiteSpace=wrap;html=1;strokeColor=light-dark(#98A2AE,#EDF3F5);dashed=1;arcSize=1;" parent="qbExKh2GQzYHgT6TWYTY-1" vertex="1">
          <mxGeometry x="545" y="722.39" width="176" height="195" as="geometry" />
        </mxCell>
        <mxCell id="P-K8g6husN1xDYQWRV40-9" value="" style="rounded=1;whiteSpace=wrap;html=1;strokeColor=none;dashed=1;arcSize=16;fillColor=light-dark(#98A2AE,#EDF3F5);" parent="qbExKh2GQzYHgT6TWYTY-1" vertex="1">
          <mxGeometry x="553" y="750.39" width="160" height="48" as="geometry" />
        </mxCell>
        <mxCell id="P-K8g6husN1xDYQWRV40-10" value="&lt;span style=&quot;color: light-dark(rgb(152, 162, 174), rgb(237, 243, 245));&quot;&gt;app:&lt;/span&gt; interfaces" style="text;html=1;align=left;verticalAlign=middle;whiteSpace=wrap;rounded=0;fontFamily=Google Sans;fontSource=https%3A%2F%2Ffonts.googleapis.com%2Fcss%3Ffamily%3DGoogle%2BSans;fontColor=light-dark(#4D5766,#F9F9F9);fontSize=12;" parent="qbExKh2GQzYHgT6TWYTY-1" vertex="1">
          <mxGeometry x="553" y="725.39" width="99.68" height="30" as="geometry" />
        </mxCell>
        <mxCell id="P-K8g6husN1xDYQWRV40-11" value="" style="rounded=1;whiteSpace=wrap;html=1;strokeColor=none;dashed=1;arcSize=16;fillColor=light-dark(#98A2AE,#EDF3F5);" parent="qbExKh2GQzYHgT6TWYTY-1" vertex="1">
          <mxGeometry x="553" y="826.39" width="160" height="28" as="geometry" />
        </mxCell>
        <mxCell id="P-K8g6husN1xDYQWRV40-12" value="&lt;span style=&quot;color: light-dark(rgb(152, 162, 174), rgb(237, 243, 245));&quot;&gt;app: &lt;/span&gt;fabric" style="text;html=1;align=left;verticalAlign=middle;whiteSpace=wrap;rounded=0;fontFamily=Google Sans;fontSource=https%3A%2F%2Ffonts.googleapis.com%2Fcss%3Ffamily%3DGoogle%2BSans;fontColor=light-dark(#4D5766,#F9F9F9);fontSize=12;" parent="qbExKh2GQzYHgT6TWYTY-1" vertex="1">
          <mxGeometry x="553" y="801.39" width="99.68" height="30" as="geometry" />
        </mxCell>
        <mxCell id="P-K8g6husN1xDYQWRV40-13" value="interface" style="rounded=1;whiteSpace=wrap;html=1;strokeColor=none;dashed=1;arcSize=16;fillColor=light-dark(#005AFF,#F9F9F9);fontColor=light-dark(#EDF3F5,#EDF3F5);" parent="qbExKh2GQzYHgT6TWYTY-1" vertex="1">
          <mxGeometry x="562" y="758.14" width="68" height="32.5" as="geometry" />
        </mxCell>
        <mxCell id="P-K8g6husN1xDYQWRV40-14" value="lag" style="rounded=1;whiteSpace=wrap;html=1;strokeColor=none;dashed=1;arcSize=16;fillColor=light-dark(#005AFF,#F9F9F9);fontColor=light-dark(#EDF3F5,#EDF3F5);" parent="qbExKh2GQzYHgT6TWYTY-1" vertex="1">
          <mxGeometry x="637" y="758.14" width="68" height="32.5" as="geometry" />
        </mxCell>
        <mxCell id="P-K8g6husN1xDYQWRV40-15" value="" style="rounded=1;whiteSpace=wrap;html=1;strokeColor=none;dashed=1;arcSize=16;fillColor=light-dark(#005AFF,#F9F9F9);fontColor=light-dark(#EDF3F5,#EDF3F5);" parent="qbExKh2GQzYHgT6TWYTY-1" vertex="1">
          <mxGeometry x="562" y="832.89" width="19.16" height="15" as="geometry" />
        </mxCell>
        <mxCell id="P-K8g6husN1xDYQWRV40-16" value="" style="rounded=1;whiteSpace=wrap;html=1;strokeColor=none;dashed=1;arcSize=16;fillColor=light-dark(#005AFF,#F9F9F9);fontColor=light-dark(#EDF3F5,#EDF3F5);" parent="qbExKh2GQzYHgT6TWYTY-1" vertex="1">
          <mxGeometry x="587" y="832.89" width="19.16" height="15" as="geometry" />
        </mxCell>
        <mxCell id="P-K8g6husN1xDYQWRV40-17" value="" style="rounded=1;whiteSpace=wrap;html=1;strokeColor=none;dashed=1;arcSize=16;fillColor=light-dark(#005AFF,#F9F9F9);fontColor=light-dark(#EDF3F5,#EDF3F5);" parent="qbExKh2GQzYHgT6TWYTY-1" vertex="1">
          <mxGeometry x="612.84" y="832.89" width="19.16" height="15" as="geometry" />
        </mxCell>
        <mxCell id="P-K8g6husN1xDYQWRV40-18" value="" style="rounded=1;whiteSpace=wrap;html=1;strokeColor=none;dashed=1;arcSize=16;fillColor=light-dark(#005AFF,#F9F9F9);fontColor=light-dark(#EDF3F5,#EDF3F5);" parent="qbExKh2GQzYHgT6TWYTY-1" vertex="1">
          <mxGeometry x="639.0000000000002" y="832.89" width="19.16" height="15" as="geometry" />
        </mxCell>
        <mxCell id="P-K8g6husN1xDYQWRV40-19" value="" style="rounded=1;whiteSpace=wrap;html=1;strokeColor=none;dashed=1;arcSize=16;fillColor=light-dark(#005AFF,#F9F9F9);fontColor=light-dark(#EDF3F5,#EDF3F5);" parent="qbExKh2GQzYHgT6TWYTY-1" vertex="1">
          <mxGeometry x="663.4200000000001" y="832.89" width="19.16" height="15" as="geometry" />
        </mxCell>
        <mxCell id="P-K8g6husN1xDYQWRV40-20" value="" style="rounded=1;whiteSpace=wrap;html=1;strokeColor=none;dashed=1;arcSize=16;fillColor=light-dark(#005AFF,#F9F9F9);fontColor=light-dark(#EDF3F5,#EDF3F5);" parent="qbExKh2GQzYHgT6TWYTY-1" vertex="1">
          <mxGeometry x="687" y="832.89" width="19.16" height="15" as="geometry" />
        </mxCell>
        <mxCell id="P-K8g6husN1xDYQWRV40-21" value="" style="shape=image;verticalLabelPosition=bottom;labelBackgroundColor=default;verticalAlign=top;aspect=fixed;imageAspect=0;image=https://kind.sigs.k8s.io/logo/logo.png;" parent="qbExKh2GQzYHgT6TWYTY-1" vertex="1">
          <mxGeometry x="483" y="630" width="52.43" height="31.61" as="geometry" />
        </mxCell>
        <mxCell id="P-K8g6husN1xDYQWRV40-22" value="" style="rounded=1;whiteSpace=wrap;html=1;fillColor=none;dashed=1;strokeColor=#98A2AE;arcSize=3;connectable=0;movable=1;resizable=1;rotatable=1;deletable=1;editable=1;locked=0;" parent="qbExKh2GQzYHgT6TWYTY-1" vertex="1">
          <mxGeometry x="740" y="722.39" width="140.84" height="194" as="geometry" />
        </mxCell>
        <mxCell id="P-K8g6husN1xDYQWRV40-23" value="&lt;b&gt;Digital Twin / CX&lt;/b&gt;" style="text;html=1;align=left;verticalAlign=middle;whiteSpace=wrap;rounded=0;fontFamily=Google Sans;fontSource=https%3A%2F%2Ffonts.googleapis.com%2Fcss%3Ffamily%3DGoogle%2BSans;fontColor=light-dark(#4D5766,#F9F9F9);fontSize=12;" parent="qbExKh2GQzYHgT6TWYTY-1" vertex="1">
          <mxGeometry x="738" y="696.39" width="108" height="30" as="geometry" />
        </mxCell>
        <mxCell id="P-K8g6husN1xDYQWRV40-24" value="" style="rounded=1;whiteSpace=wrap;html=1;strokeColor=light-dark(#4D5766,#F9F9F9);" parent="qbExKh2GQzYHgT6TWYTY-1" vertex="1">
          <mxGeometry x="752" y="828.39" width="44" height="44" as="geometry" />
        </mxCell>
        <mxCell id="P-K8g6husN1xDYQWRV40-25" value="" style="shape=image;verticalLabelPosition=bottom;labelBackgroundColor=default;verticalAlign=top;aspect=fixed;imageAspect=0;editableCssRules=.*;image=data:image/svg+xml,PHN2ZyB2aWV3Qm94PSIwIDAgMTIwIDEyMCIgeG1sOnNwYWNlPSJwcmVzZXJ2ZSIgeG1sbnM9Imh0dHA6Ly93d3cudzMub3JnLzIwMDAvc3ZnIiB3aWR0aD0iMTIwIiBoZWlnaHQ9IjEyMCIgc3R5bGU9ImNvbG9yLXNjaGVtZTogbGlnaHQgZGFyazsiPiYjeGE7ICA8c3R5bGUgdHlwZT0idGV4dC9jc3MiPi5yZWN0YW5nbGUgeyBmaWxsOiBsaWdodC1kYXJrKHJnYig3NywgODcsIDEwMiksIHJnYigwLCAxNywgNTMpKTsgfSAudGV4dCB7IGZpbGw6IHJnYigyNTUsIDI1NSwgMjU1KTsgfSA8L3N0eWxlPiYjeGE7ICA8cGF0aCBkPSJNMCAwaDEyMHYxMjBIMHoiIGNsYXNzPSJyZWN0YW5nbGUiLz4mI3hhOyAgPHBhdGggY2xhc3M9InRleHQiIGQ9Ik0zOC4yIDUwLjNjLjcuNSAxLjkgMSAzLjQgMS41czMuMy43IDUuMi43YzIuMSAwIDMuNy0uNCA0LjctMS4zczEuNS0yIDEuNS0zLjVjMC0uNS0uMS0xLS4yLTEuNXMtLjQtMS0uOC0xLjRxLS42LS42LTEuNS0xLjJjLS42LS40LTEuNC0uNy0yLjQtMWwtMy41LTFjLTIuMy0uNi00LjEtMS42LTUuNS0yLjlzLTItMy0yLTUuM3EwLTEuOC42LTMuM2MuNi0xLjUgMS4xLTEuOSAxLjktMi43czEuOS0xLjQgMy4xLTEuOSAyLjYtLjcgNC4yLS43YzEuOSAwIDMuNy4yIDUuMy43czIuOCAxIDMuNyAxLjZsLTEuNCAzcS0uNDUtLjMtMS4yLS42dC0xLjgtLjZjLS43LS4yLTEuNC0uMy0yLjItLjUtLjgtLjEtMS42LS4yLTIuNC0uMi0xLjkgMC0zLjMuNC00LjQgMS4zLTEgLjktMS41IDItMS41IDMuNXEwIDEuOTUgMS4yIDNjLjguNyAyLjEgMS40IDMuOSAxLjlsMy41IDFjMi41LjcgNC40IDEuNyA1LjYgMyAxLjMgMS4zIDEuOSAzLjEgMS45IDUuNCAwIDEuMy0uMiAyLjQtLjcgMy41cy0xLjEgMi0yIDIuN2MtLjkuOC0xLjkgMS4zLTMuMiAxLjgtMS4zLjQtMi43LjYtNC4zLjZxLTIuMSAwLTMuOS0uM2MtMS4yLS4yLTIuMi0uNS0zLS44LS45LS4zLTEuNi0uNi0yLjItLjlzLTEtLjUtMS4yLS43em00NC40IDUuMUg3OGwtNy4xLTEyaC00LjR2MTJoLTMuOFYyNS42aDguNmMxLjggMCAzLjQuMyA0LjYuOXMyLjIgMS4zIDMgMi4yYy43LjkgMS4zIDEuOCAxLjYgMi45LjMgMSAuNSAyIC41IDIuOSAwIDIuMS0uNSAzLjktMS42IDUuM3MtMi42IDIuNC00LjYgM3pNNzEgNDBjMiAwIDMuNi0uNSA0LjYtMS41czEuNS0yLjMgMS41LTQtLjUtMy0xLjUtNC0yLjQtMS41LTQuMy0xLjVoLTQuN3YxMXpNMzkuMSA5M0gyNy4zVjcyLjJIMzB2MTguNGg5LjF6bTQuNS0xNy44Yy0uNSAwLTEtLjItMS4zLS41cy0uNS0uOC0uNS0xLjMuMi0uOS41LTEuM2MuMy0uMy43LS41IDEuMy0uNXMxIC4yIDEuMy41LjUuOC41IDEuMy0uMiAxLS41IDEuMy0uOC41LTEuMy41TTQ0LjkgOTNoLTIuNlY3OC4yaDIuNnptMTYuOSAwaC0yLjZ2LTkuMWMwLS44LS4xLTEuNC0uMi0xLjlzLS40LS45LS42LTEuMmMtLjMtLjMtLjYtLjUtMS0uNnMtLjgtLjItMS4yLS4yYy0uOCAwLTEuNC4yLTIgLjUtLjUuMy0xIC43LTEuMyAxLjJzLS42IDEuMS0uNyAxLjgtLjIgMS40LS4yIDIuMVY5M2gtMi42Vjc4LjJoMi40bC4xIDJjLjEtLjIuMy0uNS42LS44cy42LS42IDEtLjguOS0uNCAxLjQtLjYgMS4yLS4yIDEuOS0uMnEyLjU1IDAgMy45IDEuNWMuOSAxIDEuMyAyLjMgMS4zIDQuMVY5M3ptMTYuNyAwaC0yLjRsLS4xLTJjLS4xLjItLjMuNS0uNi44cy0uNi41LTEgLjhjLS40LjItLjguNC0xLjQuNi0uNS4yLTEuMi4yLTEuOC4ycS0yLjU1IDAtMy45LTEuNWMtLjktMS0xLjMtMi4zLTEuMy00LjF2LTkuN2gyLjZ2OS4zYzAgLjcuMSAxLjMuMiAxLjhzLjQuOC42IDEuMWMuMy4zLjYuNSAxIC42cy44LjIgMS4yLjJjLjggMCAxLjQtLjIgMi0uNS41LS4zIDEtLjcgMS4zLTEuMnMuNi0xLjEuNy0xLjguMi0xLjQuMi0yLjF2LTcuM2gyLjZWOTN6bTE2LjMgMGgtMy4xbC0zLjktNS42LTQgNS42SDgxbDUuMy03LjctNS03LjJoMy4xbDMuNCA0LjkgMy40LTQuOUg5NEw4OS4yIDg1eiIvPiYjeGE7PC9zdmc+;imageBackground=light-dark(#4D5766,#F9F9F9);" parent="qbExKh2GQzYHgT6TWYTY-1" vertex="1">
          <mxGeometry x="760" y="836.39" width="28" height="28" as="geometry" />
        </mxCell>
        <mxCell id="P-K8g6husN1xDYQWRV40-26" value="" style="rounded=1;whiteSpace=wrap;html=1;strokeColor=light-dark(#4D5766,#F9F9F9);" parent="qbExKh2GQzYHgT6TWYTY-1" vertex="1">
          <mxGeometry x="823" y="828.89" width="44" height="44" as="geometry" />
        </mxCell>
        <mxCell id="P-K8g6husN1xDYQWRV40-27" value="" style="shape=image;verticalLabelPosition=bottom;labelBackgroundColor=default;verticalAlign=top;aspect=fixed;imageAspect=0;editableCssRules=.*;image=data:image/svg+xml,PHN2ZyB2aWV3Qm94PSIwIDAgMTIwIDEyMCIgeG1sOnNwYWNlPSJwcmVzZXJ2ZSIgeG1sbnM9Imh0dHA6Ly93d3cudzMub3JnLzIwMDAvc3ZnIiB3aWR0aD0iMTIwIiBoZWlnaHQ9IjEyMCIgc3R5bGU9ImNvbG9yLXNjaGVtZTogbGlnaHQgZGFyazsiPiYjeGE7ICA8c3R5bGUgdHlwZT0idGV4dC9jc3MiPi5yZWN0YW5nbGUgeyBmaWxsOiBsaWdodC1kYXJrKHJnYig3NywgODcsIDEwMiksIHJnYigwLCAxNywgNTMpKTsgfSAudGV4dCB7IGZpbGw6IHJnYigyNTUsIDI1NSwgMjU1KTsgfSA8L3N0eWxlPiYjeGE7ICA8cGF0aCBkPSJNMCAwaDEyMHYxMjBIMHoiIGNsYXNzPSJyZWN0YW5nbGUiLz4mI3hhOyAgPHBhdGggY2xhc3M9InRleHQiIGQ9Ik0zOC4yIDUwLjNjLjcuNSAxLjkgMSAzLjQgMS41czMuMy43IDUuMi43YzIuMSAwIDMuNy0uNCA0LjctMS4zczEuNS0yIDEuNS0zLjVjMC0uNS0uMS0xLS4yLTEuNXMtLjQtMS0uOC0xLjRxLS42LS42LTEuNS0xLjJjLS42LS40LTEuNC0uNy0yLjQtMWwtMy41LTFjLTIuMy0uNi00LjEtMS42LTUuNS0yLjlzLTItMy0yLTUuM3EwLTEuOC42LTMuM2MuNi0xLjUgMS4xLTEuOSAxLjktMi43czEuOS0xLjQgMy4xLTEuOSAyLjYtLjcgNC4yLS43YzEuOSAwIDMuNy4yIDUuMy43czIuOCAxIDMuNyAxLjZsLTEuNCAzcS0uNDUtLjMtMS4yLS42dC0xLjgtLjZjLS43LS4yLTEuNC0uMy0yLjItLjUtLjgtLjEtMS42LS4yLTIuNC0uMi0xLjkgMC0zLjMuNC00LjQgMS4zLTEgLjktMS41IDItMS41IDMuNXEwIDEuOTUgMS4yIDNjLjguNyAyLjEgMS40IDMuOSAxLjlsMy41IDFjMi41LjcgNC40IDEuNyA1LjYgMyAxLjMgMS4zIDEuOSAzLjEgMS45IDUuNCAwIDEuMy0uMiAyLjQtLjcgMy41cy0xLjEgMi0yIDIuN2MtLjkuOC0xLjkgMS4zLTMuMiAxLjgtMS4zLjQtMi43LjYtNC4zLjZxLTIuMSAwLTMuOS0uM2MtMS4yLS4yLTIuMi0uNS0zLS44LS45LS4zLTEuNi0uNi0yLjItLjlzLTEtLjUtMS4yLS43em00NC40IDUuMUg3OGwtNy4xLTEyaC00LjR2MTJoLTMuOFYyNS42aDguNmMxLjggMCAzLjQuMyA0LjYuOXMyLjIgMS4zIDMgMi4yYy43LjkgMS4zIDEuOCAxLjYgMi45LjMgMSAuNSAyIC41IDIuOSAwIDIuMS0uNSAzLjktMS42IDUuM3MtMi42IDIuNC00LjYgM3pNNzEgNDBjMiAwIDMuNi0uNSA0LjYtMS41czEuNS0yLjMgMS41LTQtLjUtMy0xLjUtNC0yLjQtMS41LTQuMy0xLjVoLTQuN3YxMXpNMzkuMSA5M0gyNy4zVjcyLjJIMzB2MTguNGg5LjF6bTQuNS0xNy44Yy0uNSAwLTEtLjItMS4zLS41cy0uNS0uOC0uNS0xLjMuMi0uOS41LTEuM2MuMy0uMy43LS41IDEuMy0uNXMxIC4yIDEuMy41LjUuOC41IDEuMy0uMiAxLS41IDEuMy0uOC41LTEuMy41TTQ0LjkgOTNoLTIuNlY3OC4yaDIuNnptMTYuOSAwaC0yLjZ2LTkuMWMwLS44LS4xLTEuNC0uMi0xLjlzLS40LS45LS42LTEuMmMtLjMtLjMtLjYtLjUtMS0uNnMtLjgtLjItMS4yLS4yYy0uOCAwLTEuNC4yLTIgLjUtLjUuMy0xIC43LTEuMyAxLjJzLS42IDEuMS0uNyAxLjgtLjIgMS40LS4yIDIuMVY5M2gtMi42Vjc4LjJoMi40bC4xIDJjLjEtLjIuMy0uNS42LS44cy42LS42IDEtLjguOS0uNCAxLjQtLjYgMS4yLS4yIDEuOS0uMnEyLjU1IDAgMy45IDEuNWMuOSAxIDEuMyAyLjMgMS4zIDQuMVY5M3ptMTYuNyAwaC0yLjRsLS4xLTJjLS4xLjItLjMuNS0uNi44cy0uNi41LTEgLjhjLS40LjItLjguNC0xLjQuNi0uNS4yLTEuMi4yLTEuOC4ycS0yLjU1IDAtMy45LTEuNWMtLjktMS0xLjMtMi4zLTEuMy00LjF2LTkuN2gyLjZ2OS4zYzAgLjcuMSAxLjMuMiAxLjhzLjQuOC42IDEuMWMuMy4zLjYuNSAxIC42cy44LjIgMS4yLjJjLjggMCAxLjQtLjIgMi0uNS41LS4zIDEtLjcgMS4zLTEuMnMuNi0xLjEuNy0xLjguMi0xLjQuMi0yLjF2LTcuM2gyLjZWOTN6bTE2LjMgMGgtMy4xbC0zLjktNS42LTQgNS42SDgxbDUuMy03LjctNS03LjJoMy4xbDMuNCA0LjkgMy40LTQuOUg5NEw4OS4yIDg1eiIvPiYjeGE7PC9zdmc+;imageBackground=light-dark(#4D5766,#F9F9F9);" parent="qbExKh2GQzYHgT6TWYTY-1" vertex="1">
          <mxGeometry x="831" y="836.89" width="28" height="28" as="geometry" />
        </mxCell>
        <mxCell id="P-K8g6husN1xDYQWRV40-28" value="" style="rounded=1;whiteSpace=wrap;html=1;strokeColor=light-dark(#4D5766,#F9F9F9);" parent="qbExKh2GQzYHgT6TWYTY-1" vertex="1">
          <mxGeometry x="785" y="772.39" width="44" height="44" as="geometry" />
        </mxCell>
        <mxCell id="P-K8g6husN1xDYQWRV40-29" value="" style="shape=image;verticalLabelPosition=bottom;labelBackgroundColor=default;verticalAlign=top;aspect=fixed;imageAspect=0;editableCssRules=.*;image=data:image/svg+xml,PHN2ZyB2aWV3Qm94PSIwIDAgMTIwIDEyMCIgeG1sOnNwYWNlPSJwcmVzZXJ2ZSIgeG1sbnM9Imh0dHA6Ly93d3cudzMub3JnLzIwMDAvc3ZnIiB3aWR0aD0iMTIwIiBoZWlnaHQ9IjEyMCIgc3R5bGU9ImNvbG9yLXNjaGVtZTogbGlnaHQgZGFyazsiPiYjeGE7ICA8c3R5bGUgdHlwZT0idGV4dC9jc3MiPi5yZWN0YW5nbGUgeyBmaWxsOiBsaWdodC1kYXJrKHJnYig3NywgODcsIDEwMiksIHJnYigwLCAxNywgNTMpKTsgfSAudGV4dCB7IGZpbGw6IHJnYigyNTUsIDI1NSwgMjU1KTsgfSA8L3N0eWxlPiYjeGE7ICA8cGF0aCBkPSJNMCAwaDEyMHYxMjBIMHoiIGNsYXNzPSJyZWN0YW5nbGUiLz4mI3hhOyAgPHBhdGggY2xhc3M9InRleHQiIGQ9Ik0zOC4yIDUwLjNjLjcuNSAxLjkgMSAzLjQgMS41czMuMy43IDUuMi43YzIuMSAwIDMuNy0uNCA0LjctMS4zczEuNS0yIDEuNS0zLjVjMC0uNS0uMS0xLS4yLTEuNXMtLjQtMS0uOC0xLjRxLS42LS42LTEuNS0xLjJjLS42LS40LTEuNC0uNy0yLjQtMWwtMy41LTFjLTIuMy0uNi00LjEtMS42LTUuNS0yLjlzLTItMy0yLTUuM3EwLTEuOC42LTMuM2MuNi0xLjUgMS4xLTEuOSAxLjktMi43czEuOS0xLjQgMy4xLTEuOSAyLjYtLjcgNC4yLS43YzEuOSAwIDMuNy4yIDUuMy43czIuOCAxIDMuNyAxLjZsLTEuNCAzcS0uNDUtLjMtMS4yLS42dC0xLjgtLjZjLS43LS4yLTEuNC0uMy0yLjItLjUtLjgtLjEtMS42LS4yLTIuNC0uMi0xLjkgMC0zLjMuNC00LjQgMS4zLTEgLjktMS41IDItMS41IDMuNXEwIDEuOTUgMS4yIDNjLjguNyAyLjEgMS40IDMuOSAxLjlsMy41IDFjMi41LjcgNC40IDEuNyA1LjYgMyAxLjMgMS4zIDEuOSAzLjEgMS45IDUuNCAwIDEuMy0uMiAyLjQtLjcgMy41cy0xLjEgMi0yIDIuN2MtLjkuOC0xLjkgMS4zLTMuMiAxLjgtMS4zLjQtMi43LjYtNC4zLjZxLTIuMSAwLTMuOS0uM2MtMS4yLS4yLTIuMi0uNS0zLS44LS45LS4zLTEuNi0uNi0yLjItLjlzLTEtLjUtMS4yLS43em00NC40IDUuMUg3OGwtNy4xLTEyaC00LjR2MTJoLTMuOFYyNS42aDguNmMxLjggMCAzLjQuMyA0LjYuOXMyLjIgMS4zIDMgMi4yYy43LjkgMS4zIDEuOCAxLjYgMi45LjMgMSAuNSAyIC41IDIuOSAwIDIuMS0uNSAzLjktMS42IDUuM3MtMi42IDIuNC00LjYgM3pNNzEgNDBjMiAwIDMuNi0uNSA0LjYtMS41czEuNS0yLjMgMS41LTQtLjUtMy0xLjUtNC0yLjQtMS41LTQuMy0xLjVoLTQuN3YxMXpNMzkuMSA5M0gyNy4zVjcyLjJIMzB2MTguNGg5LjF6bTQuNS0xNy44Yy0uNSAwLTEtLjItMS4zLS41cy0uNS0uOC0uNS0xLjMuMi0uOS41LTEuM2MuMy0uMy43LS41IDEuMy0uNXMxIC4yIDEuMy41LjUuOC41IDEuMy0uMiAxLS41IDEuMy0uOC41LTEuMy41TTQ0LjkgOTNoLTIuNlY3OC4yaDIuNnptMTYuOSAwaC0yLjZ2LTkuMWMwLS44LS4xLTEuNC0uMi0xLjlzLS40LS45LS42LTEuMmMtLjMtLjMtLjYtLjUtMS0uNnMtLjgtLjItMS4yLS4yYy0uOCAwLTEuNC4yLTIgLjUtLjUuMy0xIC43LTEuMyAxLjJzLS42IDEuMS0uNyAxLjgtLjIgMS40LS4yIDIuMVY5M2gtMi42Vjc4LjJoMi40bC4xIDJjLjEtLjIuMy0uNS42LS44cy42LS42IDEtLjguOS0uNCAxLjQtLjYgMS4yLS4yIDEuOS0uMnEyLjU1IDAgMy45IDEuNWMuOSAxIDEuMyAyLjMgMS4zIDQuMVY5M3ptMTYuNyAwaC0yLjRsLS4xLTJjLS4xLjItLjMuNS0uNi44cy0uNi41LTEgLjhjLS40LjItLjguNC0xLjQuNi0uNS4yLTEuMi4yLTEuOC4ycS0yLjU1IDAtMy45LTEuNWMtLjktMS0xLjMtMi4zLTEuMy00LjF2LTkuN2gyLjZ2OS4zYzAgLjcuMSAxLjMuMiAxLjhzLjQuOC42IDEuMWMuMy4zLjYuNSAxIC42cy44LjIgMS4yLjJjLjggMCAxLjQtLjIgMi0uNS41LS4zIDEtLjcgMS4zLTEuMnMuNi0xLjEuNy0xLjguMi0xLjQuMi0yLjF2LTcuM2gyLjZWOTN6bTE2LjMgMGgtMy4xbC0zLjktNS42LTQgNS42SDgxbDUuMy03LjctNS03LjJoMy4xbDMuNCA0LjkgMy40LTQuOUg5NEw4OS4yIDg1eiIvPiYjeGE7PC9zdmc+;imageBackground=light-dark(#4D5766,#F9F9F9);" parent="qbExKh2GQzYHgT6TWYTY-1" vertex="1">
          <mxGeometry x="793" y="780.39" width="28" height="28" as="geometry" />
        </mxCell>
        <mxCell id="P-K8g6husN1xDYQWRV40-30" value="" style="rounded=1;whiteSpace=wrap;html=1;strokeColor=none;dashed=1;arcSize=16;fillColor=light-dark(#98A2AE,#EDF3F5);" parent="qbExKh2GQzYHgT6TWYTY-1" vertex="1">
          <mxGeometry x="553" y="874.39" width="160" height="28" as="geometry" />
        </mxCell>
        <mxCell id="P-K8g6husN1xDYQWRV40-31" value="&lt;span style=&quot;color: light-dark(rgb(152, 162, 174), rgb(237, 243, 245));&quot;&gt;app: &lt;/span&gt;services" style="text;html=1;align=left;verticalAlign=middle;whiteSpace=wrap;rounded=0;fontFamily=Google Sans;fontSource=https%3A%2F%2Ffonts.googleapis.com%2Fcss%3Ffamily%3DGoogle%2BSans;fontColor=light-dark(#4D5766,#F9F9F9);fontSize=12;" parent="qbExKh2GQzYHgT6TWYTY-1" vertex="1">
          <mxGeometry x="553" y="849.39" width="99.68" height="30" as="geometry" />
        </mxCell>
        <mxCell id="P-K8g6husN1xDYQWRV40-32" value="" style="rounded=1;whiteSpace=wrap;html=1;strokeColor=none;dashed=1;arcSize=16;fillColor=light-dark(#005AFF,#F9F9F9);fontColor=light-dark(#EDF3F5,#EDF3F5);" parent="qbExKh2GQzYHgT6TWYTY-1" vertex="1">
          <mxGeometry x="562" y="880.89" width="19.16" height="15" as="geometry" />
        </mxCell>
        <mxCell id="P-K8g6husN1xDYQWRV40-33" value="" style="rounded=1;whiteSpace=wrap;html=1;strokeColor=none;dashed=1;arcSize=16;fillColor=light-dark(#005AFF,#F9F9F9);fontColor=light-dark(#EDF3F5,#EDF3F5);" parent="qbExKh2GQzYHgT6TWYTY-1" vertex="1">
          <mxGeometry x="587" y="880.89" width="19.16" height="15" as="geometry" />
        </mxCell>
        <mxCell id="P-K8g6husN1xDYQWRV40-34" value="" style="rounded=1;whiteSpace=wrap;html=1;strokeColor=none;dashed=1;arcSize=16;fillColor=light-dark(#005AFF,#F9F9F9);fontColor=light-dark(#EDF3F5,#EDF3F5);" parent="qbExKh2GQzYHgT6TWYTY-1" vertex="1">
          <mxGeometry x="612.8400000000001" y="880.89" width="19.16" height="15" as="geometry" />
        </mxCell>
        <mxCell id="P-K8g6husN1xDYQWRV40-35" value="" style="rounded=1;whiteSpace=wrap;html=1;strokeColor=none;dashed=1;arcSize=16;fillColor=light-dark(#005AFF,#F9F9F9);fontColor=light-dark(#EDF3F5,#EDF3F5);" parent="qbExKh2GQzYHgT6TWYTY-1" vertex="1">
          <mxGeometry x="639.0000000000002" y="880.89" width="19.16" height="15" as="geometry" />
        </mxCell>
        <mxCell id="P-K8g6husN1xDYQWRV40-36" value="" style="rounded=1;whiteSpace=wrap;html=1;strokeColor=none;dashed=1;arcSize=16;fillColor=light-dark(#005AFF,#F9F9F9);fontColor=light-dark(#EDF3F5,#EDF3F5);" parent="qbExKh2GQzYHgT6TWYTY-1" vertex="1">
          <mxGeometry x="663.4200000000001" y="880.89" width="19.16" height="15" as="geometry" />
        </mxCell>
        <mxCell id="P-K8g6husN1xDYQWRV40-37" value="" style="rounded=1;whiteSpace=wrap;html=1;strokeColor=none;dashed=1;arcSize=16;fillColor=light-dark(#005AFF,#F9F9F9);fontColor=light-dark(#EDF3F5,#EDF3F5);" parent="qbExKh2GQzYHgT6TWYTY-1" vertex="1">
          <mxGeometry x="687" y="880.89" width="19.16" height="15" as="geometry" />
        </mxCell>
        <mxCell id="P-K8g6husN1xDYQWRV40-38" value="" style="endArrow=oval;html=1;rounded=0;exitX=0.5;exitY=0;exitDx=0;exitDy=0;strokeColor=light-dark(#98A2AE,#EDF3F5);startArrow=oval;startFill=1;endFill=1;endSize=2;startSize=2;entryX=0.25;entryY=1;entryDx=0;entryDy=0;" parent="qbExKh2GQzYHgT6TWYTY-1" source="P-K8g6husN1xDYQWRV40-24" target="P-K8g6husN1xDYQWRV40-28" edge="1">
          <mxGeometry width="50" height="50" relative="1" as="geometry">
            <mxPoint x="782" y="825.39" as="sourcePoint" />
            <mxPoint x="782" y="788.39" as="targetPoint" />
          </mxGeometry>
        </mxCell>
        <mxCell id="P-K8g6husN1xDYQWRV40-39" value="" style="endArrow=oval;html=1;rounded=0;exitX=0.5;exitY=0;exitDx=0;exitDy=0;strokeColor=light-dark(#98A2AE,#EDF3F5);startArrow=oval;startFill=1;endFill=1;endSize=2;startSize=2;entryX=0.75;entryY=1;entryDx=0;entryDy=0;" parent="qbExKh2GQzYHgT6TWYTY-1" source="P-K8g6husN1xDYQWRV40-26" target="P-K8g6husN1xDYQWRV40-28" edge="1">
          <mxGeometry width="50" height="50" relative="1" as="geometry">
            <mxPoint x="789" y="833.39" as="sourcePoint" />
            <mxPoint x="811" y="821.39" as="targetPoint" />
          </mxGeometry>
        </mxCell>
        <mxCell id="P-K8g6husN1xDYQWRV40-40" value="&lt;b&gt;EDA Apps&lt;/b&gt;" style="text;html=1;align=left;verticalAlign=middle;whiteSpace=wrap;rounded=0;fontFamily=Google Sans;fontSource=https%3A%2F%2Ffonts.googleapis.com%2Fcss%3Ffamily%3DGoogle%2BSans;fontColor=light-dark(#4D5766,#F9F9F9);fontSize=12;" parent="qbExKh2GQzYHgT6TWYTY-1" vertex="1">
          <mxGeometry x="544.68" y="694.9999999999999" width="108" height="30" as="geometry" />
        </mxCell>
        <mxCell id="P-K8g6husN1xDYQWRV40-41" value="&lt;b&gt;Nokia EDA&lt;/b&gt;" style="text;html=1;align=left;verticalAlign=middle;whiteSpace=wrap;rounded=0;fontFamily=Google Sans;fontSource=https%3A%2F%2Ffonts.googleapis.com%2Fcss%3Ffamily%3DGoogle%2BSans;fontColor=light-dark(#4D5766,#F9F9F9);fontSize=12;" parent="qbExKh2GQzYHgT6TWYTY-1" vertex="1">
          <mxGeometry x="553" y="661.61" width="108" height="30" as="geometry" />
        </mxCell>
        <mxCell id="P-K8g6husN1xDYQWRV40-42" value="&lt;b&gt;KinD cluster&lt;/b&gt;" style="text;html=1;align=left;verticalAlign=middle;whiteSpace=wrap;rounded=0;fontFamily=Google Sans;fontSource=https%3A%2F%2Ffonts.googleapis.com%2Fcss%3Ffamily%3DGoogle%2BSans;fontColor=light-dark(#4D5766,#F9F9F9);fontSize=12;" parent="qbExKh2GQzYHgT6TWYTY-1" vertex="1">
          <mxGeometry x="535.43" y="621" width="108" height="30" as="geometry" />
        </mxCell>
      </root>
    </mxGraphModel>
  </diagram>
  <diagram name="[1] cfgmap to yaml" id="rkb5ZvwNmX8A1LG_BJbz">
    <mxGraphModel dx="975" dy="1195" grid="0" gridSize="5" guides="1" tooltips="1" connect="1" arrows="1" fold="1" page="1" pageScale="1" pageWidth="3300" pageHeight="4681" background="#4d5766" math="0" shadow="0">
      <root>
        <mxCell id="uRmPExatXZhPpERJdLzJ-0" />
        <mxCell id="uRmPExatXZhPpERJdLzJ-1" parent="uRmPExatXZhPpERJdLzJ-0" />
        <UserObject label="&lt;div style=&quot;line-height: 100%;&quot;&gt;&lt;div style=&quot;color: rgb(216, 222, 233); background-color: rgb(26, 29, 35); font-family: JetBrainsMono Nerd Font, JetBrainsMono, JetBrains Mono, Fira Code, Hasklig, Menlo, Monaco, &amp;quot;Courier New&amp;quot;, monospace, Menlo, Monaco, &amp;quot;Courier New&amp;quot;, monospace; font-weight: normal; font-size: 14px; white-space: pre; line-height: 100%;&quot;&gt;&lt;div&gt;&lt;span style=&quot;color: rgb(129, 161, 193);&quot;&gt;apiVersion&lt;/span&gt;&lt;span style=&quot;color: rgb(107, 120, 148);&quot;&gt;:&lt;/span&gt;&lt;span style=&quot;color: rgb(143, 188, 187);&quot;&gt; &lt;/span&gt;&lt;span style=&quot;color: rgb(163, 190, 140);&quot;&gt;v1&lt;/span&gt;&lt;/div&gt;&lt;div&gt;&lt;span style=&quot;color: rgb(129, 161, 193);&quot;&gt;kind&lt;/span&gt;&lt;span style=&quot;color: rgb(107, 120, 148);&quot;&gt;:&lt;/span&gt;&lt;span style=&quot;color: rgb(143, 188, 187);&quot;&gt; &lt;/span&gt;&lt;span style=&quot;color: rgb(163, 190, 140);&quot;&gt;ConfigMap&lt;/span&gt;&lt;/div&gt;&lt;div&gt;&lt;span style=&quot;color: rgb(129, 161, 193);&quot;&gt;metadata&lt;/span&gt;&lt;span style=&quot;color: rgb(107, 120, 148);&quot;&gt;:&lt;/span&gt;&lt;/div&gt;&lt;div&gt;&lt;span style=&quot;color: rgb(143, 188, 187);&quot;&gt;  &lt;/span&gt;&lt;span style=&quot;color: rgb(129, 161, 193);&quot;&gt;name&lt;/span&gt;&lt;span style=&quot;color: rgb(107, 120, 148);&quot;&gt;:&lt;/span&gt;&lt;span style=&quot;color: rgb(143, 188, 187);&quot;&gt; &lt;/span&gt;&lt;span style=&quot;color: rgb(163, 190, 140);&quot;&gt;eda-topology&lt;/span&gt;&lt;/div&gt;&lt;div&gt;&lt;span style=&quot;color: rgb(129, 161, 193);&quot;&gt;data&lt;/span&gt;&lt;span style=&quot;color: rgb(107, 120, 148);&quot;&gt;:&lt;/span&gt;&lt;/div&gt;&lt;div&gt;&lt;font data-font-src=&quot;https://fonts.googleapis.com/css?family=Fira+Code&quot; face=&quot;Fira Code&quot;&gt;&lt;span style=&quot;color: rgb(143, 188, 187);&quot;&gt;  &lt;/span&gt;&lt;span style=&quot;color: rgb(129, 161, 193);&quot;&gt;eda.yaml&lt;/span&gt;&lt;span style=&quot;color: rgb(107, 120, 148);&quot;&gt;:&lt;/span&gt;&lt;span style=&quot;color: rgb(143, 188, 187);&quot;&gt; &lt;/span&gt;&lt;span style=&quot;color: rgb(129, 161, 193);&quot;&gt;|&lt;/span&gt;&lt;/font&gt;&lt;/div&gt;&lt;div&gt;&lt;span style=&quot;color: rgb(163, 190, 140);&quot;&gt;    items:&lt;/span&gt;&lt;/div&gt;&lt;div&gt;&lt;span style=&quot;color: rgb(163, 190, 140);&quot;&gt;      - spec:&lt;/span&gt;&lt;/div&gt;&lt;div&gt;&lt;span style=&quot;color: rgb(163, 190, 140);&quot;&gt;          nodes:&lt;/span&gt;&lt;/div&gt;&lt;div&gt;&lt;span style=&quot;color: rgb(163, 190, 140);&quot;&gt;            - &amp;lt;TopoNode&amp;gt;&lt;/span&gt;&lt;/div&gt;&lt;span&gt;&lt;br&gt;&lt;/span&gt;&lt;div&gt;&lt;span style=&quot;color: rgb(163, 190, 140);&quot;&gt;          links:&lt;/span&gt;&lt;/div&gt;&lt;div&gt;&lt;span style=&quot;color: rgb(163, 190, 140);&quot;&gt;            - &amp;lt;TopoLink&amp;gt;&lt;/span&gt;&lt;/div&gt;&lt;/div&gt;&lt;/div&gt;" id="ju0RQdkTO5zPnit2QWtS-0">
          <mxCell style="rounded=1;html=1;strokeColor=light-dark(#1a1d22, #5c79a3);fillColor=light-dark(#1B1D23,#1B1D23);arcSize=4;align=left;spacingLeft=10;fillStyle=solid;" vertex="1" parent="uRmPExatXZhPpERJdLzJ-1">
            <mxGeometry x="1341" y="371" width="272" height="217" as="geometry" />
          </mxCell>
        </UserObject>
        <mxCell id="uRmPExatXZhPpERJdLzJ-23" value="&lt;font style=&quot;font-size: 16px;&quot;&gt;&lt;b&gt;ConfigMap&lt;/b&gt;&lt;/font&gt;" style="text;html=1;align=left;verticalAlign=middle;whiteSpace=wrap;rounded=0;fontFamily=Google Sans;fontSource=https%3A%2F%2Ffonts.googleapis.com%2Fcss%3Ffamily%3DGoogle%2BSans;fontColor=light-dark(#FFFFFF,#F9F9F9);fontSize=12;" vertex="1" parent="uRmPExatXZhPpERJdLzJ-1">
          <mxGeometry x="1418" y="334" width="108" height="30" as="geometry" />
        </mxCell>
        <UserObject label="&lt;div style=&quot;line-height: 100%;&quot;&gt;&lt;div style=&quot;color: rgb(216, 222, 233); background-color: rgb(26, 29, 35); font-family: JetBrainsMono Nerd Font, JetBrainsMono, JetBrains Mono, Fira Code, Hasklig, Menlo, Monaco, &amp;quot;Courier New&amp;quot;, monospace, Menlo, Monaco, &amp;quot;Courier New&amp;quot;, monospace; font-weight: normal; font-size: 14px; white-space: pre; line-height: 100%;&quot;&gt;&lt;div&gt;&lt;span style=&quot;color: #8fbcbb;&quot;&gt;items&lt;/span&gt;&lt;span style=&quot;color: #6b7894;&quot;&gt;:&lt;/span&gt;&lt;/div&gt;&lt;div&gt;&lt;span style=&quot;color: #d8dee9;&quot;&gt;  &lt;/span&gt;&lt;span style=&quot;color: #6b7894;&quot;&gt;-&lt;/span&gt;&lt;span style=&quot;color: #d8dee9;&quot;&gt; &lt;/span&gt;&lt;span style=&quot;color: #8fbcbb;&quot;&gt;spec&lt;/span&gt;&lt;span style=&quot;color: #6b7894;&quot;&gt;:&lt;/span&gt;&lt;/div&gt;&lt;div&gt;&lt;span style=&quot;color: #d8dee9;&quot;&gt;      &lt;/span&gt;&lt;span style=&quot;color: #8fbcbb;&quot;&gt;nodes&lt;/span&gt;&lt;span style=&quot;color: #6b7894;&quot;&gt;:&lt;/span&gt;&lt;/div&gt;&lt;div&gt;&lt;span style=&quot;color: #d8dee9;&quot;&gt;        &lt;/span&gt;&lt;span style=&quot;color: #6b7894;&quot;&gt;-&lt;/span&gt;&lt;span style=&quot;color: #d8dee9;&quot;&gt; &lt;/span&gt;&lt;span style=&quot;color: #a3be8c;&quot;&gt;&amp;lt;TopoNode&amp;gt;&lt;/span&gt;&lt;/div&gt;&lt;br&gt;&lt;div&gt;&lt;span style=&quot;color: #d8dee9;&quot;&gt;      &lt;/span&gt;&lt;span style=&quot;color: #8fbcbb;&quot;&gt;links&lt;/span&gt;&lt;span style=&quot;color: #6b7894;&quot;&gt;:&lt;/span&gt;&lt;/div&gt;&lt;div&gt;&lt;span style=&quot;color: #d8dee9;&quot;&gt;        &lt;/span&gt;&lt;span style=&quot;color: #6b7894;&quot;&gt;-&lt;/span&gt;&lt;span style=&quot;color: #d8dee9;&quot;&gt; &lt;/span&gt;&lt;span style=&quot;color: #a3be8c;&quot;&gt;&amp;lt;TopoLink&amp;gt;&lt;/span&gt;&lt;/div&gt;&lt;/div&gt;&lt;/div&gt;" id="ju0RQdkTO5zPnit2QWtS-10">
          <mxCell style="rounded=1;html=1;strokeColor=light-dark(#1a1d22, #5c79a3);fillColor=light-dark(#1B1D23,#1B1D23);arcSize=4;align=left;spacingLeft=10;" vertex="1" parent="uRmPExatXZhPpERJdLzJ-1">
            <mxGeometry x="1713" y="371" width="272" height="217" as="geometry" />
          </mxCell>
        </UserObject>
        <mxCell id="ju0RQdkTO5zPnit2QWtS-11" value="&lt;b&gt;Topology YAML&lt;/b&gt;" style="text;html=1;align=left;verticalAlign=middle;whiteSpace=wrap;rounded=0;fontFamily=Google Sans;fontSource=https%3A%2F%2Ffonts.googleapis.com%2Fcss%3Ffamily%3DGoogle%2BSans;fontColor=light-dark(#FFFFFF,#F9F9F9);fontSize=16;" vertex="1" parent="uRmPExatXZhPpERJdLzJ-1">
          <mxGeometry x="1787" y="334" width="136" height="30" as="geometry" />
        </mxCell>
        <mxCell id="ju0RQdkTO5zPnit2QWtS-12" value="" style="endArrow=classic;html=1;rounded=0;" edge="1" parent="uRmPExatXZhPpERJdLzJ-1">
          <mxGeometry width="50" height="50" relative="1" as="geometry">
            <mxPoint x="1631" y="479.05" as="sourcePoint" />
            <mxPoint x="1695" y="479.55" as="targetPoint" />
          </mxGeometry>
        </mxCell>
      </root>
    </mxGraphModel>
  </diagram>
</mxfile>
